<svg width="17" height="17" viewBox="0 0 17 17" fill="none" xmlns="http://www.w3.org/2000/svg">
<g id="Clock-Square">
<g id="Vector">
<path fill-rule="evenodd" clip-rule="evenodd" d="M8.61802 4.95768C8.94402 4.95768 9.20829 5.20805 9.20829 5.51689L9.20829 9.24496C9.20829 9.39328 9.1461 9.53551 9.0354 9.64039L6.67429 11.8772C6.44377 12.0956 6.07003 12.0956 5.83951 11.8772C5.609 11.6588 5.609 11.3048 5.83951 11.0864L8.02774 9.01333V5.51689C8.02774 5.20805 8.29202 4.95768 8.61802 4.95768Z" fill="#0063A9"/>
<path fill-rule="evenodd" clip-rule="evenodd" d="M8.49996 2.50576C6.96346 2.50576 4.86348 2.64677 3.55222 2.74835C3.12099 2.78176 2.78237 3.12038 2.74896 3.55161C2.64738 4.86287 2.50637 6.96284 2.50637 8.49935C2.50637 10.0359 2.64738 12.1358 2.74896 13.4471C2.78237 13.8783 3.12099 14.2169 3.55222 14.2503C4.86348 14.3519 6.96346 14.4929 8.49996 14.4929C10.0365 14.4929 12.1364 14.3519 13.4477 14.2503C13.8789 14.2169 14.2175 13.8783 14.251 13.4471C14.3525 12.1358 14.4936 10.0359 14.4936 8.49935C14.4936 6.96284 14.3525 4.86287 14.251 3.55161C14.2175 3.12038 13.8789 2.78176 13.4477 2.74835C12.1364 2.64677 10.0365 2.50576 8.49996 2.50576ZM3.46804 1.66187C4.77993 1.56023 6.91717 1.41602 8.49996 1.41602C10.0828 1.41602 12.22 1.56023 13.5319 1.66187C14.4985 1.73676 15.2626 2.50076 15.3374 3.46743C15.4391 4.77931 15.5833 6.91656 15.5833 8.49935C15.5833 10.0821 15.4391 12.2194 15.3374 13.5313C15.2626 14.4979 14.4985 15.2619 13.5319 15.3368C12.22 15.4385 10.0828 15.5827 8.49996 15.5827C6.91717 15.5827 4.77993 15.4385 3.46804 15.3368C2.50137 15.2619 1.73737 14.4979 1.66248 13.5313C1.56084 12.2194 1.41663 10.0821 1.41663 8.49935C1.41663 6.91656 1.56084 4.77931 1.66248 3.46743C1.73737 2.50076 2.50137 1.73676 3.46804 1.66187Z" fill="#0063A9"/>
</g>
</g>
</svg>
