<svg width="30" height="30" viewBox="0 0 30 30" stroke="none" fill="none" xmlns="http://www.w3.org/2000/svg">
<g id="X">
<path id="Vector 139 (Stroke)" fill-rule="evenodd" clip-rule="evenodd" d="M5.28345 5.28345C5.66137 4.90552 6.27411 4.90552 6.65204 5.28345L15 13.6314L23.348 5.28345C23.7259 4.90552 24.3386 4.90552 24.7166 5.28345C25.0945 5.66137 25.0945 6.27411 24.7166 6.65204L16.3686 15L24.7166 23.348C25.0945 23.7259 25.0945 24.3386 24.7166 24.7166C24.3386 25.0945 23.7259 25.0945 23.348 24.7166L15 16.3686L6.65204 24.7166C6.27411 25.0945 5.66137 25.0945 5.28345 24.7166C4.90552 24.3386 4.90552 23.7259 5.28345 23.348L13.6314 15L5.28345 6.65204C4.90552 6.27411 4.90552 5.66137 5.28345 5.28345Z" fill="black"/>
</g>
</svg>
