<svg width="24" height="24" viewBox="0 0 24 24" fill="none" xmlns="http://www.w3.org/2000/svg">
<g clip-path="url(#clip0_152_1630)">
<path d="M24 12.0001C23.9996 9.70689 23.3422 7.46183 22.1056 5.53067C20.8689 3.59951 19.1048 2.06313 17.0221 1.10341C14.9394 0.143695 12.6254 -0.199171 10.3538 0.115405C8.08235 0.429982 5.94854 1.38883 4.20505 2.87843C2.46156 4.36803 1.18139 6.32601 0.516104 8.52056C-0.149185 10.7151 -0.171736 13.0543 0.451122 15.2613C1.07398 17.4683 2.31616 19.4506 4.03061 20.9735C5.74506 22.4965 7.85999 23.4963 10.125 23.8546V15.4688H7.0785V12.0001H10.125V9.35632C10.125 6.34882 11.9167 4.68757 14.6572 4.68757C15.5573 4.70005 16.4551 4.77826 17.3438 4.92157V7.87507H15.8302C15.5723 7.84082 15.31 7.86504 15.0628 7.94595C14.8155 8.02685 14.5896 8.16236 14.4018 8.34244C14.214 8.52252 14.0691 8.74254 13.978 8.98621C13.8868 9.22988 13.8516 9.49095 13.875 9.75007V12.0001H17.2035L16.671 15.4688H13.875V23.8546C16.6978 23.408 19.2686 21.9686 21.1248 19.7955C22.9809 17.6223 24.0005 14.858 24 12.0001Z" fill="white"/>
</g>
<defs>
<clipPath id="clip0_152_1630">
<rect width="24" height="24" fill="white"/>
</clipPath>
</defs>
</svg>
