<svg width="17" height="17" viewBox="0 0 17 17" fill="none" xmlns="http://www.w3.org/2000/svg">
<g id="Location">
<g id="Vector">
<path fill-rule="evenodd" clip-rule="evenodd" d="M8.5 2.4639C5.53407 2.4639 3.03215 4.61862 3.23593 7.30205C3.26516 7.68692 3.30885 8.02194 3.36838 8.28779C3.66871 9.62902 4.61144 10.9614 5.67328 12.0925C6.72609 13.2139 7.84703 14.0863 8.42626 14.5094C8.47256 14.5433 8.52744 14.5433 8.57374 14.5094C9.15297 14.0863 10.2739 13.2139 11.3267 12.0925C12.3886 10.9614 13.3313 9.62902 13.6316 8.28779C13.6912 8.02194 13.7348 7.68692 13.7641 7.30205C13.9679 4.61862 11.4659 2.4639 8.5 2.4639ZM2.13998 7.37774C1.87998 3.95405 5.04517 1.41602 8.5 1.41602C11.9548 1.41602 15.12 3.95405 14.86 7.37774C14.8289 7.78782 14.7804 8.17546 14.7062 8.50662C14.3462 10.1146 13.2521 11.6125 12.1454 12.7914C11.0296 13.9799 9.85021 14.897 9.24192 15.3413C8.80136 15.6631 8.19864 15.6631 7.75808 15.3413C7.14979 14.897 5.97038 13.9799 4.85462 12.7914C3.74789 11.6125 2.65383 10.1146 2.29378 8.50662C2.21963 8.17546 2.17112 7.78782 2.13998 7.37774Z" fill="#004E85"/>
<path fill-rule="evenodd" clip-rule="evenodd" d="M8.5 6.65545C7.99428 6.65545 7.58431 7.04641 7.58431 7.52869C7.58431 8.01096 7.99428 8.40193 8.5 8.40193C9.00572 8.40193 9.41568 8.01096 9.41568 7.52869C9.41568 7.04641 9.00572 6.65545 8.5 6.65545ZM6.48549 7.52869C6.48549 6.46768 7.38742 5.60756 8.5 5.60756C9.61258 5.60756 10.5145 6.46768 10.5145 7.52869C10.5145 8.58969 9.61258 9.44981 8.5 9.44981C7.38742 9.44981 6.48549 8.58969 6.48549 7.52869Z" fill="#004E85"/>
</g>
</g>
</svg>
