<svg width="23" height="23" viewBox="0 0 23 23" fill="none" xmlns="http://www.w3.org/2000/svg">
<path fill-rule="evenodd" clip-rule="evenodd" d="M11.5 3.33374C7.48728 3.33374 4.10232 6.24895 4.37802 9.87948C4.41756 10.4002 4.47667 10.8534 4.55721 11.2131C4.96355 13.0277 6.239 14.8303 7.67561 16.3606C9.1 17.8778 10.6166 19.0582 11.4002 19.6306C11.4629 19.6764 11.5371 19.6764 11.5998 19.6306C12.3834 19.0582 13.9 17.8778 15.3244 16.3606C16.761 14.8303 18.0365 13.0277 18.4428 11.2131C18.5233 10.8534 18.5824 10.4002 18.622 9.87948C18.8977 6.24895 15.5127 3.33374 11.5 3.33374ZM2.89526 9.98188C2.5435 5.34982 6.82582 1.91602 11.5 1.91602C16.1742 1.91602 20.4565 5.34982 20.1047 9.98188C20.0626 10.5367 19.997 11.0612 19.8966 11.5092C19.4095 13.6846 17.9293 15.7113 16.432 17.3063C14.9224 18.9142 13.3268 20.155 12.5038 20.7561C11.9077 21.1915 11.0923 21.1915 10.4962 20.7561C9.67324 20.155 8.07757 18.9142 6.56801 17.3063C5.07068 15.7113 3.59048 13.6846 3.10335 11.5092C3.00303 11.0612 2.9374 10.5367 2.89526 9.98188Z" fill="white"/>
<path fill-rule="evenodd" clip-rule="evenodd" d="M11.5 9.00466C10.8158 9.00466 10.2611 9.53361 10.2611 10.1861C10.2611 10.8386 10.8158 11.3675 11.5 11.3675C12.1842 11.3675 12.7389 10.8386 12.7389 10.1861C12.7389 9.53361 12.1842 9.00466 11.5 9.00466ZM8.77449 10.1861C8.77449 8.75062 9.99474 7.58693 11.5 7.58693C13.0053 7.58693 14.2255 8.75062 14.2255 10.1861C14.2255 11.6216 13.0053 12.7853 11.5 12.7853C9.99474 12.7853 8.77449 11.6216 8.77449 10.1861Z" fill="white"/>
</svg>
