<svg width="249" height="69" viewBox="0 0 249 69" fill="none" xmlns="http://www.w3.org/2000/svg">
<path d="M132.611 15.4512C126.093 15.4512 121.48 17.0417 118.985 19.4274L119.557 16.1097H111.305L106.187 46.0868H114.439L117.524 29.6848C118.498 24.0311 122.643 19.5579 129.021 18.6756C135.612 17.7561 139.665 22.1486 138.721 27.7216L135.563 46.093H143.907L147.09 27.4793C148.307 20.3345 141.74 15.4512 132.611 15.4512Z" fill="white"/>
<path d="M186.634 6.99609L180.548 42.5088L179.928 46.1185H163.709L163.733 46.0874C153.886 45.8824 146.309 39.887 147.289 30.9405C148.324 21.4721 157.812 15.632 167.062 15.7625H173.099L172.521 18.7508H168.425C159.93 18.6017 155.615 25.2557 155.663 32.649C155.718 38.5388 160.228 42.9437 166.253 43.2047H172.333L178.461 7.07066L186.634 6.99609Z" fill="white"/>
<path d="M180.573 42.5098L179.927 46.1194L180.548 42.5098H180.573Z" fill="white"/>
<path d="M47.043 6.98311L40.3545 46.0869L48.522 46.0061L55.2102 6.90234L47.043 6.98311Z" fill="white"/>
<path d="M6.67602 8.12695L0 46.0938L8.17935 46.013L13.3217 14.5573L6.67602 8.12695Z" fill="white"/>
<path d="M247.778 18.9735L248.398 15.923C246.171 15.867 236.196 15.8733 233.756 15.8733C227.244 15.8733 223.24 20.5888 222.333 26.1245L219.059 46.1734H227.475L231.036 25.7331C231.949 20.1477 234.389 19.2531 239.392 19.0232C241.948 18.9113 245.197 18.9113 247.778 18.9735Z" fill="white"/>
<path d="M200.212 29.2247H213.199C214.16 25.4784 212.755 18.8493 204.526 18.8058C198.234 18.7747 192.221 23.8382 191.692 32.6605C191.339 38.5503 194.813 43.1043 201.197 43.1043H210.071L209.565 46.0802H199.445C190.535 46.2604 181.455 39.8115 182.97 30.9333C184.407 22.5211 193.475 15.6931 204.46 15.7801C215.299 15.8671 222.194 21.0673 220.928 31.1942C220.879 31.5856 220.873 31.6851 220.77 32.2132H199.737L200.212 29.2247Z" fill="white"/>
<path d="M87.0221 29.2326H100.009C100.971 25.4862 99.5649 18.8571 91.3368 18.8136C85.0441 18.7825 79.0313 23.846 78.5019 32.6683C78.1489 38.5581 81.624 43.1121 88.008 43.1121H96.8813L96.3761 46.0881H86.2554C77.3457 46.2682 68.2654 39.8193 69.7808 30.9411C71.2171 22.5289 80.285 15.701 91.27 15.7879C102.109 15.8749 109.004 21.0751 107.738 31.202C107.69 31.5935 107.678 31.6929 107.58 32.2209H86.5475L87.0221 29.2326Z" fill="white"/>
<path d="M40.6117 40.3276C39.2424 44.8629 31.8784 47.317 21.3682 46.236C17.388 45.8135 13.1583 44.9188 10.4014 43.2849C10.4014 43.2849 11.1317 38.6998 11.1622 38.6749C13.0914 40.0977 18.532 42.4275 22.2992 43.0053C28.8293 44.0056 32.2437 42.297 31.343 39.7001C30.3936 36.9478 21.849 33.4188 20.364 32.6298C13.5966 29.0139 12.4584 25.4477 13.499 22.0679C14.9231 17.5574 24.399 14.6249 33.7529 16.0539C37.9096 16.6876 40.8795 18.0047 43.3747 19.8003L40.4596 22.7886C38.9137 21.5771 35.7734 19.5082 32.2437 18.9864C26.6933 18.1414 21.8611 18.8497 21.5447 21.981C21.2282 25.075 29.1274 28.0323 32.9007 30.1198C39.0778 33.5182 41.6524 36.9788 40.6117 40.3276Z" fill="white"/>
<path d="M59.9322 27.218C58.0456 28.4855 58.2342 31.1135 59.8591 32.5797L73.3089 46.0865H63.1151L54.041 37.432C50.9007 34.4374 51.4972 29.1067 55.2522 26.6278L71.6291 16.3145L76.5646 16.389L59.9322 27.218Z" fill="white"/>
<path d="M14.9956 3.53512L14.0099 9.96542L3.7002 0H12.032C13.8699 0 15.2816 1.67747 14.9956 3.53512Z" fill="#DD0613"/>
<path d="M50.3486 64.2218L50.945 63.5197C52.3022 64.7995 53.5498 65.3898 55.3695 65.3898C57.2196 65.3898 58.4855 64.3274 58.4855 62.8549C58.4855 61.5254 57.7978 60.7488 54.9983 60.1772C52.0345 59.5683 50.8416 58.5432 50.8416 56.5986C50.8416 54.7285 52.5154 53.2871 54.8037 53.2871C56.599 53.2871 57.7856 53.7903 59.0332 54.8155L58.4489 55.5548C57.2865 54.5297 56.1243 54.1321 54.7671 54.1321C52.9535 54.1321 51.7545 55.1945 51.7545 56.5427C51.7545 57.8722 52.424 58.6799 55.3513 59.2949C58.2056 59.8914 59.4046 60.9289 59.4046 62.8052C59.4046 64.8368 57.6944 66.2409 55.3148 66.2409C53.3491 66.2347 51.8336 65.5699 50.3486 64.2218Z" fill="white"/>
<path d="M61.1455 63.3573C61.1455 61.4499 62.7522 60.3689 65.0769 60.3689C66.3245 60.3689 67.1888 60.5304 68.053 60.7665V60.3689C68.053 58.5175 66.9452 57.5607 65.0951 57.5607C63.9996 57.5607 63.1051 57.8651 62.2774 58.3L61.9609 57.5234C62.9468 57.0574 63.9146 56.7344 65.15 56.7344C66.3672 56.7344 67.3347 57.0761 67.9859 57.7409C68.5823 58.3497 68.905 59.2009 68.905 60.3316V66.0537H68.059V64.5253C67.4443 65.4075 66.3306 66.2711 64.6205 66.2711C62.9408 66.2711 61.1455 65.3019 61.1455 63.3573ZM68.0711 62.618V61.5742C67.3104 61.3754 66.3125 61.1579 65.0223 61.1579C63.1174 61.1579 62.0643 62.0215 62.0643 63.3324C62.0643 64.662 63.2999 65.4386 64.6692 65.4386C66.5011 65.4448 68.0711 64.2954 68.0711 62.618Z" fill="white"/>
<path d="M71.6553 56.8854H72.5194V58.594C73.1158 57.5129 74.12 56.668 75.7632 56.668C78.0333 56.668 79.3601 58.2523 79.3601 60.4454V66.0556H78.4956V60.6069C78.4956 58.7182 77.455 57.4756 75.6414 57.4756C73.8765 57.4756 72.5254 58.8425 72.5254 60.7498V66.0556H71.6612V56.8854H71.6553Z" fill="white"/>
<path d="M82.1288 53.2871H83.1998V54.4924H82.1288V53.2871ZM82.2322 56.8844H83.0963V66.0608H82.2322V56.8844Z" fill="white"/>
<path d="M86.6275 63.6992V57.6913H85.325V56.8836H86.6275V53.9512H87.4916V56.8836H90.6439V57.6913H87.4916V63.6122C87.4916 64.9231 88.2522 65.3953 89.2868 65.3953C89.7249 65.3953 90.0964 65.3083 90.6076 65.0722V65.8985C90.1512 66.116 89.7067 66.2216 89.1468 66.2216C87.7531 66.2216 86.6275 65.445 86.6275 63.6992Z" fill="white"/>
<path d="M92.1093 63.3573C92.1093 61.4499 93.716 60.3689 96.0408 60.3689C97.2884 60.3689 98.1526 60.5304 99.0168 60.7665V60.3689C99.0168 58.5175 97.9093 57.5607 96.0592 57.5607C94.9637 57.5607 94.0689 57.8651 93.2412 58.3L92.9247 57.5234C93.9106 57.0574 94.8784 56.7344 96.1139 56.7344C97.331 56.7344 98.2988 57.0761 98.95 57.7409C99.5464 58.3497 99.8688 59.2009 99.8688 60.3316V66.0537H99.0228V64.5253C98.4081 65.4075 97.2944 66.2711 95.5843 66.2711C93.9107 66.2711 92.1093 65.3019 92.1093 63.3573ZM99.0349 62.618V61.5742C98.2742 61.3754 97.2763 61.1579 95.9861 61.1579C94.0812 61.1579 93.0284 62.0215 93.0284 63.3324C93.0284 64.662 94.2637 65.4386 95.633 65.4386C97.4649 65.4448 99.0349 64.2954 99.0349 62.618Z" fill="white"/>
<path d="M102.628 56.8845H103.492V59.4939C104.198 57.8599 105.695 56.667 107.472 56.7416V57.7108H107.387C105.305 57.7108 103.492 59.3137 103.492 62.2959V66.0547H102.628V56.8845Z" fill="white"/>
<path d="M108.64 68.5957L108.938 67.8253C109.412 68.0614 109.802 68.167 110.471 68.167C111.409 68.167 112.023 67.6078 112.693 66.0111L108.378 56.8906H109.382L113.119 65.0916L116.363 56.8906H117.312L113.417 66.3901C112.626 68.3161 111.707 68.9995 110.423 68.9995C109.729 68.9871 109.236 68.8628 108.64 68.5957Z" fill="white"/>
<path d="M123.502 56.8849H124.469L127.184 64.943L129.898 56.8477H130.586L133.3 64.943L136.014 56.8849H136.952L133.659 66.1297H132.917L130.239 58.2704L127.543 66.1297H126.807L123.502 56.8849Z" fill="white"/>
<path d="M138.016 63.3573C138.016 61.4499 139.622 60.3689 141.947 60.3689C143.195 60.3689 144.059 60.5304 144.923 60.7665V60.3689C144.923 58.5175 143.815 57.5607 141.965 57.5607C140.87 57.5607 139.975 57.8651 139.148 58.3L138.831 57.5234C139.817 57.0574 140.785 56.7344 142.02 56.7344C143.237 56.7344 144.205 57.0761 144.856 57.7409C145.452 58.3497 145.775 59.2009 145.775 60.3316V66.0537H144.929V64.5253C144.314 65.4075 143.201 66.2711 141.491 66.2711C139.817 66.2711 138.016 65.3019 138.016 63.3573ZM144.941 62.618V61.5742C144.181 61.3754 143.183 61.1579 141.892 61.1579C139.988 61.1579 138.934 62.0215 138.934 63.3324C138.934 64.662 140.17 65.4386 141.539 65.4386C143.371 65.4448 144.941 64.2954 144.941 62.618Z" fill="white"/>
<path d="M148.526 56.8845H149.391V59.4939C150.096 57.8599 151.594 56.667 153.371 56.7416V57.7108H153.285C151.204 57.7108 149.391 59.3137 149.391 62.2959V66.0547H148.526V56.8845Z" fill="white"/>
<path d="M154.174 61.4519C154.174 58.7928 156.006 56.668 158.44 56.668C160.96 56.668 162.56 58.7555 162.56 61.4705C162.56 61.632 162.56 61.688 162.542 61.8309H155.087C155.245 64.1172 156.852 65.4467 158.61 65.4467C160.004 65.4467 160.953 64.8192 161.696 64.0054L162.292 64.5459C161.379 65.5524 160.302 66.2731 158.574 66.2731C156.213 66.2731 154.174 64.3471 154.174 61.4519ZM161.623 61.0418C161.501 59.1904 160.46 57.4819 158.397 57.4819C156.614 57.4819 155.245 59.0102 155.081 61.0418H161.623Z" fill="white"/>
</svg>
