<svg width="193" height="129" viewBox="0 0 193 129" fill="none" xmlns="http://www.w3.org/2000/svg">
<g id="illustration">
<g id="freepik--background-simple--inject-26">
<path id="Vector" d="M182.153 127.423C182.153 127.423 189.642 111.678 189.365 85.9714C189.087 60.2651 175.773 36.1656 159.407 29.4177C143.041 22.6698 128.617 31.3457 109.2 32.3096C89.7832 33.2736 78.4103 4.99679 50.6717 18.4925C22.9331 31.9883 22.9331 59.3012 27.6486 72.4756C32.3642 85.65 41.2406 92.0766 31.532 101.395C21.8235 110.714 12.3924 116.497 9.61851 120.032C7.9787 122.081 6.91466 124.658 6.56726 127.423H182.153Z" fill="#0B71BB"/>
<path id="Vector_2" opacity="0.7" d="M182.153 127.423C182.153 127.423 189.642 111.678 189.365 85.9714C189.087 60.2651 175.773 36.1656 159.407 29.4177C143.041 22.6698 128.617 31.3457 109.2 32.3096C89.7832 33.2736 78.4103 4.99679 50.6717 18.4925C22.9331 31.9883 22.9331 59.3012 27.6486 72.4756C32.3642 85.65 41.2406 92.0766 31.532 101.395C21.8235 110.714 12.3924 116.497 9.61851 120.032C7.9787 122.081 6.91466 124.658 6.56726 127.423H182.153Z" fill="white"/>
</g>
<g id="freepik--Coins--inject-26">
<g id="Group" opacity="0.2">
<path id="Vector_3" d="M60.1033 14.0312C58.7608 14.0325 57.4487 14.4948 56.3329 15.3596C55.2171 16.2244 54.3476 17.453 53.8343 18.8901C53.321 20.3272 53.187 21.9083 53.4492 23.4335C53.7114 24.9588 54.358 26.3598 55.3073 27.4595C56.2567 28.5592 57.4661 29.3083 58.7828 29.612C60.0995 29.9157 61.4644 29.7605 62.7049 29.1659C63.9455 28.5714 65.006 27.5641 65.7526 26.2715C66.4992 24.979 66.8982 23.459 66.8993 21.9038C66.8993 19.8159 66.1833 17.8134 64.9088 16.3371C63.6343 14.8607 61.9057 14.0312 60.1033 14.0312ZM60.794 26.7012V27.4595H59.6429V26.7012C58.6304 26.4666 58.12 25.5605 58.12 24.1531V23.4429H59.4515V24.2559C59.4515 24.9982 59.7289 25.2649 60.181 25.2649C60.6332 25.2649 60.9105 24.9982 60.9105 24.2559C60.9105 22.1223 58.1589 22.0066 58.1589 19.0536C58.1589 17.659 58.6582 16.7722 59.6429 16.5183V15.7471H60.794V16.5183C61.7926 16.7561 62.303 17.6462 62.303 19.0536V19.3749H60.9743V18.9508C60.9743 18.2085 60.7164 17.9257 60.2698 17.9257C59.8232 17.9257 59.5652 18.2085 59.5652 18.9508C59.5652 21.0844 62.3169 21.2001 62.3169 24.1531C62.3224 25.5605 61.7982 26.4666 60.7996 26.7012H60.794Z" stroke="black" stroke-width="1.26722" stroke-linecap="round" stroke-linejoin="round"/>
<path id="Vector_4" d="M60.1027 10.8691C58.2201 10.8685 56.3797 11.5146 54.8142 12.7258C53.2487 13.937 52.0284 15.6588 51.3077 17.6734C50.5871 19.6881 50.3984 21.905 50.7655 24.0439C51.1326 26.1828 52.0391 28.1476 53.3703 29.6896C54.7014 31.2316 56.3975 32.2817 58.2439 32.707C60.0903 33.1323 62.0041 32.9137 63.7432 32.0788C65.4824 31.244 66.9687 29.8304 68.0142 28.0169C69.0598 26.2034 69.6176 24.0715 69.617 21.8907C69.617 18.9676 68.6146 16.1642 66.8303 14.0973C65.046 12.0303 62.626 10.8691 60.1027 10.8691ZM60.1027 30.9457C58.5565 30.9444 57.0455 30.412 55.7606 29.4159C54.4757 28.4197 53.4746 27.0045 52.8841 25.3492C52.2936 23.694 52.14 21.873 52.443 20.1167C52.7459 18.3603 53.4916 16.7475 54.5858 15.4821C55.6801 14.2168 57.0737 13.3558 58.5904 13.008C60.1071 12.6602 61.6787 12.8413 63.1066 13.5283C64.5345 14.2153 65.7544 15.3775 66.612 16.8677C67.4697 18.3579 67.9266 20.1093 67.925 21.9003C67.9206 24.3005 67.0946 26.6007 65.6282 28.2964C64.1617 29.9921 62.1746 30.9449 60.1027 30.9457Z" stroke="black" stroke-width="1.26722" stroke-linecap="round" stroke-linejoin="round"/>
</g>
<g id="Group_2" opacity="0.2">
<path id="Vector_5" d="M116.662 15.4512C115.68 15.4512 114.719 15.7887 113.902 16.4211C113.085 17.0534 112.449 17.9522 112.073 19.0038C111.697 20.0554 111.598 21.2125 111.79 22.3289C111.982 23.4453 112.455 24.4707 113.15 25.2755C113.844 26.0804 114.73 26.6285 115.693 26.8506C116.657 27.0726 117.656 26.9586 118.564 26.5231C119.471 26.0875 120.247 25.3499 120.793 24.4035C121.339 23.457 121.63 22.3444 121.63 21.2062C121.629 19.6804 121.105 18.2175 120.174 17.1386C119.242 16.0597 117.98 15.4529 116.662 15.4512ZM117.167 24.7247V25.2774H116.335V24.7247C115.595 24.5512 115.226 23.8892 115.226 22.8578V22.3372H116.199V22.9349C116.199 23.4779 116.407 23.6707 116.735 23.6707C117.062 23.6707 117.267 23.4779 117.267 22.9349C117.267 21.3732 115.253 21.2961 115.253 19.1272C115.253 18.1086 115.619 17.4563 116.341 17.2731V16.7076H117.173V17.2731C117.902 17.4466 118.282 18.0957 118.282 19.1272V19.3649H117.309V19.0436C117.309 18.5038 117.123 18.2949 116.793 18.2949C116.463 18.2949 116.28 18.5038 116.28 19.0436C116.28 20.6053 118.293 20.6824 118.293 22.8514C118.282 23.8892 117.897 24.5512 117.167 24.7247Z" stroke="black" stroke-width="1.26722" stroke-linecap="round" stroke-linejoin="round"/>
<path id="Vector_6" d="M116.662 13.1406C115.285 13.1406 113.939 13.6136 112.794 14.4999C111.649 15.3861 110.757 16.6457 110.23 18.1195C109.703 19.5932 109.565 21.2149 109.834 22.7794C110.102 24.3439 110.765 25.781 111.739 26.909C112.713 28.037 113.953 28.8051 115.304 29.1163C116.655 29.4275 118.055 29.2678 119.327 28.6573C120.599 28.0469 121.686 27.0131 122.451 25.6868C123.216 24.3605 123.625 22.8011 123.625 21.206C123.625 19.0669 122.891 17.0154 121.586 15.5029C120.28 13.9904 118.509 13.1406 116.662 13.1406ZM116.662 27.8317C115.531 27.8317 114.425 27.4431 113.485 26.7151C112.544 25.987 111.811 24.9522 111.378 23.7415C110.945 22.5308 110.832 21.1986 111.053 19.9133C111.273 18.6281 111.818 17.4475 112.618 16.5208C113.418 15.5942 114.437 14.9631 115.546 14.7075C116.656 14.4518 117.806 14.583 118.851 15.0845C119.896 15.586 120.79 16.4353 121.418 17.5249C122.047 18.6145 122.382 19.8955 122.382 21.206C122.381 22.9627 121.778 24.647 120.705 25.8892C119.633 27.1314 118.179 27.83 116.662 27.8317Z" stroke="black" stroke-width="1.26722" stroke-linecap="round" stroke-linejoin="round"/>
</g>
<g id="Group_3" opacity="0.2">
<path id="Vector_7" d="M12.9106 66.4766C11.928 66.4766 10.9675 66.8141 10.1506 67.4464C9.33357 68.0788 8.69681 68.9776 8.32079 70.0292C7.94478 71.0808 7.8464 72.2379 8.03809 73.3543C8.22978 74.4706 8.70293 75.4961 9.39772 76.3009C10.0925 77.1058 10.9777 77.6539 11.9414 77.8759C12.9051 78.098 13.904 77.984 14.8118 77.5485C15.7196 77.1129 16.4955 76.3752 17.0413 75.4288C17.5872 74.4824 17.8786 73.3698 17.8786 72.2315C17.8771 70.7057 17.3533 69.2429 16.4219 68.164C15.4905 67.0851 14.2278 66.4783 12.9106 66.4766ZM13.4155 75.7501V76.3028H12.5833V75.7501C11.8427 75.5766 11.4738 74.9146 11.4738 73.8832V73.3626H12.4474V73.9603C12.4474 74.5033 12.6526 74.6993 12.9827 74.6993C13.3128 74.6993 13.4987 74.5033 13.4987 73.9603C13.4987 72.3986 11.4849 72.3215 11.4849 70.1525C11.4849 69.1339 11.851 68.4816 12.5722 68.2985V67.733H13.4044V68.2985C14.1339 68.472 14.5139 69.1211 14.5139 70.1525V70.3903H13.5458V70.069C13.5458 69.5292 13.3572 69.3235 13.0299 69.3235C12.7026 69.3235 12.5167 69.5292 12.5167 70.069C12.5167 71.6339 14.5278 71.7078 14.5278 73.8767C14.5278 74.9243 14.145 75.5669 13.4155 75.7501Z" stroke="black" stroke-width="1.26722" stroke-linecap="round" stroke-linejoin="round"/>
<path id="Vector_8" d="M12.9119 64.1621C11.5351 64.1634 10.1896 64.6375 9.04534 65.5245C7.90111 66.4115 7.00959 67.6716 6.48347 69.1454C5.95735 70.6193 5.82027 72.2407 6.08954 73.8048C6.35881 75.3689 7.02235 76.8054 7.99628 77.9328C8.97021 79.0601 10.2108 79.8276 11.5612 80.1383C12.9116 80.4489 14.3113 80.2889 15.5832 79.6782C16.855 79.0676 17.9421 78.0338 18.7069 76.7076C19.4717 75.3814 19.8799 73.8223 19.8799 72.2274C19.8795 71.1679 19.699 70.1187 19.3486 69.14C18.9982 68.1612 18.4849 67.272 17.8379 66.5231C17.1908 65.7741 16.4228 65.1802 15.5776 64.7751C14.7324 64.37 13.8266 64.1617 12.9119 64.1621ZM12.9119 78.8532C11.7807 78.8532 10.6748 78.4646 9.73423 77.7366C8.79363 77.0085 8.06052 75.9737 7.62761 74.763C7.1947 73.5523 7.08143 72.2201 7.30213 70.9348C7.52282 69.6495 8.06757 68.4689 8.86749 67.5423C9.6674 66.6157 10.6866 65.9846 11.7961 65.729C12.9056 65.4733 14.0556 65.6045 15.1008 66.106C16.1459 66.6075 17.0392 67.4567 17.6677 68.5464C18.2962 69.636 18.6316 70.917 18.6316 72.2274C18.6302 73.9842 18.0271 75.6685 16.9547 76.9107C15.8824 78.1529 14.4284 78.8515 12.9119 78.8532Z" stroke="black" stroke-width="1.26722" stroke-linecap="round" stroke-linejoin="round"/>
</g>
<g id="Group_4" opacity="0.2">
<path id="Vector_9" d="M181.995 60.0742C181.012 60.0742 180.052 60.4117 179.235 61.0441C178.418 61.6765 177.781 62.5753 177.405 63.6269C177.029 64.6784 176.93 65.8356 177.122 66.9519C177.314 68.0683 177.787 69.0937 178.482 69.8986C179.176 70.7034 180.062 71.2515 181.025 71.4736C181.989 71.6957 182.988 71.5817 183.896 71.1461C184.804 70.7105 185.579 69.9729 186.125 69.0265C186.671 68.0801 186.963 66.9674 186.963 65.8292C186.961 64.3034 186.437 62.8406 185.506 61.7617C184.575 60.6828 183.312 60.0759 181.995 60.0742ZM182.499 69.3477V69.9004H181.667V69.3477C180.929 69.1742 180.558 68.5123 180.558 67.4808V66.9603H181.531V67.5579C181.531 68.0978 181.737 68.2938 182.064 68.2938C182.391 68.2938 182.597 68.0978 182.597 67.5579C182.597 65.9931 180.585 65.9192 180.585 63.7502C180.585 62.7284 180.949 62.0793 181.67 61.8929V61.3306H182.502V61.8929C183.232 62.0665 183.612 62.7187 183.612 63.7502V63.9944H182.638V63.6731C182.638 63.13 182.452 62.9244 182.125 62.9244C181.798 62.9244 181.601 63.13 181.601 63.6731C181.601 65.2347 183.615 65.3119 183.615 67.4808C183.615 68.5123 183.229 69.1742 182.499 69.3477Z" stroke="black" stroke-width="1.26722" stroke-linecap="round" stroke-linejoin="round"/>
<path id="Vector_10" d="M181.994 57.7637C180.617 57.7637 179.271 58.2367 178.126 59.1229C176.981 60.0092 176.089 61.2688 175.562 62.7425C175.035 64.2163 174.897 65.8379 175.166 67.4025C175.434 68.967 176.098 70.4041 177.071 71.532C178.045 72.66 179.286 73.4282 180.636 73.7394C181.987 74.0506 183.387 73.8908 184.659 73.2804C185.931 72.67 187.018 71.6362 187.783 70.3099C188.548 68.9835 188.957 67.4242 188.957 65.829C188.957 64.7698 188.777 63.7211 188.427 62.7425C188.077 61.764 187.564 60.8749 186.918 60.126C186.271 59.377 185.503 58.7829 184.659 58.3776C183.814 57.9723 182.909 57.7637 181.994 57.7637ZM181.994 72.4548C180.863 72.4573 179.756 72.0709 178.814 71.3444C177.872 70.6179 177.137 69.584 176.702 68.3735C176.268 67.163 176.153 65.8304 176.372 64.5443C176.592 63.2581 177.135 62.0763 177.935 61.1484C178.734 60.2205 179.754 59.5882 180.863 59.3315C181.973 59.0748 183.124 59.2052 184.17 59.7064C185.215 60.2075 186.109 61.0567 186.738 62.1466C187.367 63.2365 187.703 64.518 187.703 65.829C187.702 67.5835 187.1 69.2659 186.03 70.5077C184.96 71.7496 183.509 72.4497 181.994 72.4548Z" stroke="black" stroke-width="1.26722" stroke-linecap="round" stroke-linejoin="round"/>
</g>
</g>
<g id="freepik--Floor--inject-26">
<path id="Vector_11" d="M1.57275 127.584H186.312" stroke="#263238" stroke-width="1.26722" stroke-linecap="round" stroke-linejoin="round"/>
</g>
<g id="freepik--Plants--inject-26">
<path id="Vector_12" d="M12.5763 99.3397C13.4085 99.7543 15.4029 99.6996 15.4056 99.6996C15.4084 99.6996 14.9729 98.1798 14.9341 98.093C14.4958 97.0262 13.1033 95.2653 11.9688 95.442C11.7816 95.4778 11.603 95.5588 11.4446 95.6798C11.2862 95.8007 11.1514 95.9588 11.0492 96.144C10.9469 96.3291 10.8794 96.537 10.851 96.7543C10.8225 96.9717 10.8339 97.1935 10.8842 97.4054C11.0729 98.2922 11.8773 98.967 12.5763 99.3397Z" fill="#0B71BB"/>
<path id="Vector_13" d="M13.2729 106.052C14.1217 106.193 15.9136 105.593 16.0467 105.544C16.3416 106.731 16.7049 107.894 17.1341 109.024C17.3782 109.686 17.6445 110.342 17.9191 110.997C17.7554 110.721 17.6084 110.474 17.5834 110.441C16.9149 109.548 15.1729 108.272 14.1189 108.793C13.9464 108.884 13.7924 109.017 13.667 109.182C13.5416 109.347 13.4475 109.54 13.391 109.75C13.3345 109.96 13.3167 110.181 13.3389 110.399C13.3611 110.617 13.4227 110.828 13.5197 111.017C13.9081 111.836 14.8401 112.241 15.5946 112.369C16.3491 112.498 17.8941 112.022 18.2991 111.887L18.6209 112.639C19.1396 113.835 19.6611 115.024 20.1409 116.212C20.3101 116.63 20.4655 117.048 20.6208 117.466C20.4738 117.221 20.3434 117.016 20.3434 116.987C19.6749 116.09 17.9302 114.818 16.8789 115.335C16.7056 115.426 16.5507 115.558 16.4244 115.723C16.2981 115.888 16.2032 116.081 16.1459 116.292C16.0886 116.502 16.0701 116.723 16.0918 116.942C16.1134 117.161 16.1746 117.372 16.2714 117.562C16.6597 118.381 17.589 118.786 18.3435 118.915C19.098 119.043 20.496 118.61 20.9786 118.455C21.1257 118.889 21.2727 119.326 21.4003 119.741C21.4807 120.036 21.575 120.313 21.6416 120.615C21.7082 120.917 21.7858 121.203 21.8552 121.495C21.9717 122.061 22.0965 122.642 22.1991 123.198C22.2713 123.584 22.3351 123.953 22.4016 124.323C22.238 123.905 21.8996 123.095 21.8635 123.037C21.3087 122.035 19.7637 120.467 18.6569 120.788C18.4743 120.848 18.3046 120.952 18.1589 121.094C18.0133 121.235 17.8949 121.41 17.8114 121.607C17.728 121.805 17.6813 122.021 17.6746 122.24C17.6678 122.46 17.701 122.679 17.7721 122.883C18.0494 123.76 18.9177 124.326 19.6444 124.583C20.4488 124.869 22.2241 124.609 22.446 124.583C22.5542 125.2 22.6513 125.798 22.7234 126.366C22.7872 126.787 22.8455 127.189 22.8982 127.578H23.611C23.5445 127.144 23.4696 126.694 23.3891 126.222C23.2837 125.595 23.1589 124.937 23.0258 124.249C23.5611 124.001 24.0835 123.716 24.5902 123.397C25.1755 124.133 26.6734 125.004 26.8676 125.1C26.6651 125.682 26.4598 126.244 26.2601 126.771C26.1574 127.051 26.0548 127.314 25.9522 127.578H26.7067L26.8842 127.077C27.095 126.489 27.3086 125.852 27.5222 125.2C27.7358 125.251 29.4972 125.666 30.3155 125.451C31.0589 125.258 31.9604 124.769 32.2932 123.918C32.3768 123.721 32.4238 123.505 32.431 123.286C32.4383 123.066 32.4057 122.847 32.3354 122.643C32.2651 122.439 32.1586 122.254 32.0228 122.101C31.887 121.947 31.7249 121.829 31.5471 121.752C30.4625 121.331 28.8093 122.755 28.2184 123.706C28.1824 123.764 27.8523 124.422 27.6498 124.843C27.7358 124.573 27.8218 124.316 27.9078 124.04C28.0825 123.494 28.2406 122.941 28.4126 122.35C28.4875 122.061 28.5624 121.768 28.6401 121.476C28.7177 121.183 28.7732 120.865 28.8425 120.557C28.9896 119.84 29.1199 119.104 29.2142 118.362C29.6276 118.536 31.1032 119.13 31.8661 119.069C32.6289 119.008 33.5803 118.683 34.0214 117.899C34.1306 117.719 34.2059 117.515 34.2422 117.299C34.2786 117.083 34.2752 116.86 34.2322 116.646C34.1893 116.431 34.1078 116.23 33.9931 116.054C33.8784 115.879 33.733 115.734 33.5664 115.628C32.5512 115.02 30.7288 116.142 30.0076 116.974C29.9604 117.025 29.5 117.694 29.2531 118.063C29.3141 117.617 29.3751 117.17 29.4251 116.717C29.5665 115.403 29.6719 114.069 29.7857 112.739C29.8189 112.331 29.8578 111.926 29.8938 111.521C30.0409 111.582 31.7801 112.334 32.6372 112.263C33.3972 112.202 34.3514 111.878 34.7897 111.094C34.8989 110.914 34.9742 110.709 35.0105 110.494C35.0468 110.278 35.0434 110.056 35.0004 109.842C34.9575 109.627 34.876 109.426 34.7613 109.251C34.6466 109.076 34.5013 108.931 34.3348 108.825C33.3196 108.218 31.4999 109.336 30.7759 110.168C30.7204 110.233 30.0575 111.193 29.8994 111.454C29.9826 110.56 30.0714 109.67 30.1768 108.796C30.3305 107.615 30.5511 106.448 30.837 105.3C30.9035 105.329 32.7176 106.123 33.5942 106.052C34.3542 105.988 35.3084 105.666 35.7495 104.882C35.8583 104.702 35.9332 104.498 35.9693 104.282C36.0054 104.066 36.0019 103.843 35.959 103.629C35.9161 103.415 35.8348 103.213 35.7203 103.038C35.6058 102.863 35.4608 102.717 35.2946 102.611C34.2765 102.003 32.4569 103.122 31.7329 103.957C31.6774 104.021 30.9646 105.056 30.8481 105.242C30.8647 105.175 30.8758 105.104 30.8924 105.04C31.2051 103.898 31.6052 102.79 32.088 101.73C32.3487 101.142 32.6261 100.596 32.9201 100.069C33.2447 100.259 34.7342 101.097 35.5303 101.133C36.3264 101.168 37.2695 100.969 37.7827 100.246C37.9082 100.08 38.0022 99.8865 38.0587 99.6765C38.1152 99.4664 38.1329 99.2449 38.1107 99.0264C38.0884 98.8079 38.0267 98.5973 37.9296 98.4082C37.8325 98.2191 37.7021 98.0558 37.5469 97.9289C36.5927 97.1963 34.6788 98.0767 33.8799 98.8158C33.8355 98.8543 33.4333 99.3203 33.1448 99.6609C33.2752 99.4263 33.4028 99.1821 33.5304 98.9604C34.0103 98.1281 34.4929 97.3955 34.9173 96.7561C35.167 96.393 35.3972 96.0684 35.6135 95.7696C36.0158 95.7696 37.6329 95.7053 38.3403 95.3197C39.0476 94.9341 39.8187 94.2465 39.9879 93.3307C40.0332 93.1172 40.0393 92.8951 40.0056 92.6787C39.972 92.4623 39.8995 92.2565 39.7928 92.0747C39.686 91.8929 39.5475 91.7391 39.3862 91.6234C39.2248 91.5076 39.0442 91.4324 38.8562 91.4027C37.7189 91.2581 36.3597 93.064 35.9547 94.1437C35.9187 94.2369 35.4998 95.7728 35.522 95.7728H35.547C35.3306 96.0588 35.1032 96.364 34.8591 96.7047C34.4152 97.3473 33.9187 98.0574 33.4222 98.88C32.8812 99.7636 32.3839 100.682 31.9326 101.631C31.4236 102.692 30.9975 103.804 30.6594 104.953C30.6606 104.967 30.6606 104.981 30.6594 104.995C30.6594 104.606 30.6594 103.52 30.6428 103.436C30.5096 102.267 29.6636 100.088 28.5374 99.8472C28.3498 99.8131 28.158 99.8252 27.9747 99.8828C27.7914 99.9403 27.6206 100.042 27.4735 100.181C27.3264 100.32 27.2062 100.494 27.121 100.691C27.0357 100.887 26.9871 101.102 26.9785 101.322C26.9119 102.254 27.4944 103.186 28.0631 103.774C28.7039 104.439 30.4847 105.082 30.6261 105.13C30.308 106.309 30.0569 107.511 29.8744 108.729C29.7662 109.436 29.6747 110.155 29.597 110.875C29.597 110.538 29.597 110.233 29.5832 110.197C29.45 109.024 28.6012 106.849 27.4778 106.608C27.2902 106.574 27.0984 106.586 26.9151 106.644C26.7318 106.701 26.561 106.803 26.4139 106.942C26.2668 107.081 26.1466 107.255 26.0613 107.451C25.9761 107.648 25.9275 107.863 25.9189 108.083C25.8523 109.012 26.4348 109.947 27.0035 110.535C27.5721 111.123 29.0894 111.714 29.5 111.862C29.4722 112.138 29.4389 112.414 29.4112 112.691C29.2725 114.021 29.1338 115.348 28.9785 116.643C28.9202 117.103 28.8509 117.549 28.7787 117.996C28.7787 117.7 28.7787 117.446 28.7787 117.411C28.6484 116.238 27.7996 114.06 26.6762 113.819C26.4886 113.785 26.297 113.797 26.1139 113.855C25.9307 113.913 25.7601 114.015 25.6131 114.154C25.4661 114.293 25.346 114.466 25.2605 114.663C25.1751 114.859 25.1263 115.074 25.1172 115.293C25.0507 116.225 25.6332 117.157 26.2018 117.745C26.7705 118.333 28.1435 118.87 28.6151 119.047C28.5319 119.503 28.4487 119.962 28.3377 120.399C28.2628 120.695 28.2101 120.987 28.1241 121.283C28.0381 121.579 27.9605 121.865 27.88 122.154C27.708 122.7 27.5361 123.266 27.3558 123.793C27.2337 124.162 27.1117 124.512 26.9896 124.863C27.0506 124.41 27.156 123.516 27.1588 123.439C27.1439 122.399 26.9015 121.381 26.4543 120.48C26.4575 120.364 26.451 120.247 26.4348 120.133C26.4114 119.913 26.348 119.702 26.249 119.513C26.1499 119.324 26.0174 119.161 25.8601 119.036C25.7029 118.91 25.5244 118.825 25.3366 118.785C25.1488 118.746 24.9559 118.753 24.7705 118.806C23.661 119.146 22.9647 121.376 22.912 122.572C22.912 122.642 22.9481 123.401 22.9786 123.883C22.9231 123.603 22.8732 123.333 22.8122 123.047C22.6957 122.482 22.5681 121.919 22.4294 121.315C22.3545 121.026 22.2768 120.734 22.1991 120.441C22.1215 120.149 22.0216 119.847 21.9218 119.545C21.7026 118.854 21.453 118.163 21.1867 117.475C21.6166 117.356 23.1284 116.91 23.7359 116.37C24.3433 115.83 24.9813 114.953 24.9758 114.018C24.9815 113.798 24.947 113.579 24.8747 113.375C24.8025 113.172 24.6939 112.988 24.5562 112.837C24.4185 112.685 24.2548 112.569 24.0757 112.496C23.8965 112.422 23.7061 112.393 23.5167 112.411C22.3794 112.556 21.3919 114.66 21.1867 115.811C21.1867 115.882 21.1062 116.733 21.0785 117.199C20.9148 116.788 20.754 116.376 20.5792 115.965C20.0716 114.779 19.5251 113.6 18.9842 112.43C18.8206 112.071 18.6569 111.707 18.496 111.344C18.6486 111.306 20.4572 110.817 21.1368 110.213C21.7415 109.677 22.3822 108.796 22.3767 107.861C22.3824 107.641 22.3479 107.422 22.2756 107.219C22.2033 107.015 22.0948 106.832 21.9571 106.68C21.8194 106.528 21.6557 106.412 21.4766 106.339C21.2974 106.266 21.107 106.237 20.9176 106.255C19.7803 106.396 18.7928 108.504 18.5876 109.651C18.5709 109.741 18.4766 110.962 18.4655 111.277C18.1077 110.477 17.7582 109.67 17.4392 108.873C17.0078 107.79 16.6372 106.676 16.3296 105.538C16.4018 105.519 18.2908 105.021 18.987 104.4C19.5917 103.864 20.2325 102.983 20.2269 102.048C20.2327 101.828 20.1982 101.609 20.1257 101.405C20.0532 101.201 19.9444 101.018 19.8064 100.866C19.6684 100.714 19.5043 100.598 19.3249 100.525C19.1454 100.452 18.9547 100.424 18.7651 100.442C17.6306 100.583 16.6431 102.691 16.4378 103.838C16.4212 103.931 16.3186 105.246 16.3158 105.487C16.2991 105.422 16.2742 105.355 16.2575 105.287C15.9738 104.131 15.7798 102.949 15.6778 101.753C15.614 101.094 15.5863 100.467 15.5696 99.844C15.9302 99.7926 17.5723 99.542 18.2519 99.0632C18.9315 98.5844 19.625 97.8132 19.7082 96.8846C19.7349 96.6668 19.7215 96.4449 19.6689 96.2334C19.6164 96.022 19.5258 95.8258 19.4033 95.6578C19.2807 95.4897 19.1289 95.3535 18.9577 95.2582C18.7865 95.1628 18.5999 95.1104 18.41 95.1044C17.2672 95.1044 16.0883 97.0581 15.7721 98.1828C15.7555 98.247 15.6417 98.8897 15.5641 99.3588C15.5641 99.0825 15.5502 98.7933 15.5641 98.5266C15.5641 97.5273 15.6195 96.5986 15.6722 95.7985C15.7083 95.3358 15.7444 94.9213 15.786 94.5325C16.1161 94.269 17.4503 93.1861 17.8442 92.4149C18.2381 91.6437 18.5654 90.5737 18.2686 89.7029C18.2052 89.4955 18.1048 89.3059 17.9739 89.1465C17.843 88.9871 17.6846 88.8615 17.509 88.7778C17.3334 88.6941 17.1445 88.6543 16.9546 88.6609C16.7648 88.6675 16.5783 88.7203 16.4073 88.8161C15.3921 89.4234 15.1258 91.7916 15.2978 92.958C15.3144 93.0608 15.6972 94.6064 15.7139 94.5935H15.7333C15.6889 94.9663 15.6445 95.3679 15.6057 95.8049C15.5363 96.6179 15.4642 97.5369 15.442 98.5394C15.4102 99.6229 15.4324 100.708 15.5086 101.788C15.5897 102.998 15.7642 104.197 16.0301 105.371V105.413C15.8498 105.091 15.32 104.188 15.2728 104.127C14.6043 103.231 12.8623 101.958 11.8083 102.476C11.6356 102.567 11.4816 102.7 11.3562 102.865C11.2308 103.031 11.1367 103.224 11.0802 103.434C11.0237 103.644 11.006 103.866 11.0282 104.084C11.0504 104.303 11.112 104.513 11.2091 104.703C11.5863 105.519 12.5184 105.924 13.2729 106.052Z" fill="#0B71BB"/>
<path id="Vector_14" d="M32.8687 99.8308C32.8854 99.8308 33.2321 98.2853 33.246 98.1824C33.3874 97.0128 33.0629 94.6478 32.0338 94.0791C31.8607 93.9889 31.6731 93.942 31.4833 93.9414C31.2935 93.9408 31.1057 93.9866 30.9322 94.0757C30.7586 94.1649 30.6033 94.2954 30.4762 94.4587C30.3492 94.6221 30.2532 94.8146 30.1947 95.0238C29.9173 95.901 30.2668 96.9774 30.6829 97.7197C31.1683 98.5905 32.8659 99.8276 32.8687 99.8308Z" fill="#0B71BB"/>
<path id="Vector_15" d="M151.353 89.6613C152.462 90.2172 155.145 90.1465 155.147 90.1465C155.15 90.1465 154.568 88.106 154.518 87.9839C153.927 86.5508 152.06 84.189 150.54 84.4268C150.288 84.4739 150.048 84.5819 149.835 84.7439C149.622 84.9059 149.441 85.1182 149.303 85.3669C149.166 85.6156 149.075 85.8951 149.037 86.1872C148.999 86.4792 149.015 86.7772 149.084 87.0617C149.336 88.2795 150.415 89.1857 151.353 89.6613Z" fill="#0B71BB"/>
<path id="Vector_16" d="M152.285 98.6969C153.425 98.8897 155.828 98.0832 156.019 98.0157C156.415 99.6089 156.903 101.17 157.478 102.688C157.808 103.575 158.163 104.455 158.532 105.332C158.313 104.96 158.113 104.629 158.083 104.587C157.184 103.388 154.846 101.679 153.434 102.373C153.202 102.496 152.995 102.674 152.827 102.896C152.659 103.117 152.533 103.378 152.457 103.659C152.381 103.941 152.357 104.238 152.387 104.532C152.416 104.825 152.499 105.107 152.629 105.361C153.151 106.46 154.399 107.003 155.403 107.174C156.407 107.344 158.49 106.708 159.034 106.531C159.178 106.868 159.312 107.202 159.464 107.537C160.158 109.143 160.851 110.75 161.503 112.331C161.733 112.893 161.938 113.456 162.146 114.015C161.952 113.693 161.786 113.411 161.755 113.372C160.859 112.17 158.521 110.464 157.109 111.158C156.877 111.28 156.67 111.458 156.502 111.679C156.333 111.901 156.207 112.161 156.131 112.442C156.055 112.724 156.031 113.021 156.061 113.314C156.091 113.607 156.174 113.89 156.305 114.143C156.826 115.242 158.074 115.785 159.079 115.959C160.083 116.132 161.963 115.551 162.61 115.345C162.809 115.927 163.009 116.508 163.164 117.083C163.273 117.479 163.4 117.851 163.489 118.256C163.578 118.661 163.68 119.047 163.766 119.439C163.922 120.197 164.088 120.978 164.227 121.723C164.324 122.241 164.41 122.735 164.504 123.234C164.282 122.671 163.83 121.585 163.783 121.498C163.056 120.155 160.965 118.057 159.481 118.494C159.236 118.575 159.008 118.714 158.813 118.904C158.617 119.093 158.458 119.328 158.346 119.593C158.234 119.858 158.172 120.148 158.163 120.443C158.154 120.738 158.198 121.032 158.294 121.306C158.665 122.485 159.827 123.234 160.807 123.587C161.883 123.969 164.268 123.619 164.565 123.587C164.709 124.413 164.843 125.216 164.956 125.978C165.04 126.54 165.12 127.083 165.192 127.604H166.146C166.055 127.025 165.958 126.418 165.85 125.785C165.705 124.946 165.539 124.053 165.361 123.137C166.079 122.805 166.779 122.424 167.458 121.996C168.243 122.98 170.254 124.133 170.51 124.278C170.232 125.059 169.955 125.814 169.697 126.527C169.555 126.903 169.419 127.257 169.281 127.61H170.293C170.371 127.388 170.451 127.17 170.532 126.938C170.809 126.148 171.1 125.296 171.386 124.419C171.664 124.49 174.035 125.046 175.136 124.741C176.135 124.48 177.355 123.825 177.788 122.684C177.9 122.42 177.962 122.132 177.972 121.839C177.981 121.545 177.937 121.253 177.843 120.98C177.748 120.708 177.605 120.461 177.424 120.256C177.242 120.052 177.025 119.894 176.787 119.792C175.333 119.223 173.114 121.138 172.302 122.414C172.254 122.488 171.813 123.378 171.541 123.937C171.658 123.577 171.772 123.23 171.888 122.861C172.121 122.128 172.332 121.389 172.565 120.592L172.867 119.419C172.976 119.027 173.048 118.6 173.145 118.189C173.342 117.225 173.503 116.241 173.644 115.242C174.199 115.477 176.177 116.274 177.2 116.19C178.224 116.106 179.502 115.673 180.093 114.622C180.239 114.38 180.34 114.106 180.388 113.816C180.437 113.527 180.432 113.229 180.375 112.941C180.317 112.654 180.208 112.384 180.054 112.149C179.901 111.913 179.706 111.718 179.483 111.576C178.118 110.76 175.677 112.26 174.706 113.382C174.645 113.449 174.027 114.346 173.694 114.844C173.777 114.243 173.86 113.645 173.924 113.035C174.113 111.27 174.257 109.484 174.407 107.697C174.454 107.151 174.504 106.608 174.554 106.062C174.751 106.149 177.084 107.154 178.232 107.061C179.253 106.978 180.534 106.544 181.125 105.493C181.271 105.251 181.372 104.976 181.42 104.687C181.469 104.397 181.464 104.098 181.407 103.811C181.349 103.523 181.24 103.253 181.086 103.017C180.933 102.782 180.738 102.586 180.515 102.444C179.15 101.631 176.706 103.131 175.738 104.249C175.663 104.336 174.776 105.622 174.562 105.962C174.673 104.764 174.792 103.568 174.951 102.395C175.157 100.811 175.452 99.2442 175.833 97.704C175.924 97.7426 178.357 98.8062 179.533 98.713C180.554 98.6294 181.833 98.1956 182.423 97.1417C182.569 96.9001 182.67 96.6256 182.718 96.336C182.767 96.0464 182.762 95.7483 182.705 95.4609C182.647 95.1736 182.538 94.9035 182.384 94.6683C182.231 94.433 182.036 94.2379 181.813 94.0955C180.451 93.2793 178.007 94.7831 177.037 95.9013C176.962 95.9881 176.005 97.373 175.847 97.6397C175.871 97.5498 175.885 97.4566 175.91 97.3666C176.341 95.8282 176.889 94.3377 177.55 92.913C177.899 92.1225 178.271 91.3867 178.659 90.683C179.095 90.9368 181.095 92.0615 182.163 92.1097C183.183 92.1579 184.498 91.888 185.183 90.9208C185.352 90.6993 185.478 90.4392 185.554 90.1574C185.63 89.8757 185.654 89.5785 185.624 89.2854C185.594 88.9922 185.511 88.7097 185.381 88.4561C185.25 88.2025 185.075 87.9835 184.867 87.8135C183.588 86.8303 181.017 88.0128 179.946 88.9992C179.888 89.0539 179.35 89.6772 178.962 90.1367C179.136 89.8154 179.308 89.4941 179.48 89.1952C180.124 88.077 180.77 87.097 181.35 86.2358C181.68 85.7474 181.991 85.3168 182.285 84.9151C182.823 84.9151 184.992 84.8284 185.941 84.3111C186.889 83.7937 187.924 82.8683 188.16 81.6408C188.221 81.3544 188.229 81.0564 188.184 80.766C188.139 80.4756 188.042 80.1994 187.899 79.9554C187.756 79.7115 187.57 79.5051 187.354 79.3498C187.137 79.1945 186.895 79.0938 186.642 79.0541C185.117 78.8613 183.314 81.2841 182.759 82.7333C182.712 82.8587 182.154 84.9184 182.182 84.9151H182.213C181.935 85.2943 181.619 85.7056 181.294 86.1619C180.698 87.0134 180.03 87.9774 179.353 89.086C178.625 90.2697 177.957 91.5014 177.353 92.7748C176.67 94.1973 176.099 95.6878 175.647 97.2284C175.641 97.2473 175.636 97.2666 175.633 97.2863C175.633 96.7657 175.633 95.3101 175.608 95.1976C175.43 93.6263 174.293 90.699 172.784 90.3777C172.532 90.3328 172.275 90.3497 172.03 90.4272C171.784 90.5048 171.555 90.6413 171.358 90.828C171.161 91.0146 171 91.2472 170.885 91.5106C170.77 91.774 170.705 92.0624 170.693 92.3571C170.604 93.6071 171.386 94.857 172.149 95.6475C173.009 96.5376 175.397 97.3987 175.586 97.4662C175.159 99.0455 174.823 100.656 174.579 102.286C174.432 103.25 174.301 104.198 174.199 105.178C174.199 104.728 174.199 104.327 174.179 104.272C174.002 102.697 172.865 99.7734 171.356 99.452C171.104 99.4061 170.847 99.4221 170.601 99.4991C170.355 99.576 170.125 99.7121 169.928 99.8986C169.73 100.085 169.569 100.318 169.454 100.581C169.339 100.845 169.273 101.133 169.261 101.428C169.175 102.678 169.958 103.928 170.72 104.719C171.483 105.509 173.516 106.303 174.049 106.502C174.01 106.871 173.966 107.244 173.927 107.614C173.744 109.397 173.566 111.177 173.347 112.916C173.27 113.529 173.175 114.13 173.07 114.731C173.07 114.333 173.07 113.995 173.05 113.944C172.876 112.369 171.738 109.445 170.229 109.124C169.978 109.079 169.72 109.095 169.474 109.172C169.228 109.25 168.999 109.386 168.801 109.573C168.604 109.76 168.442 109.992 168.328 110.256C168.213 110.52 168.147 110.808 168.135 111.103C168.046 112.353 168.831 113.603 169.594 114.394C170.357 115.184 172.193 115.898 172.831 116.139C172.72 116.749 172.609 117.363 172.476 117.951C172.379 118.349 172.307 118.741 172.199 119.137C172.091 119.532 171.98 119.921 171.872 120.306C171.641 121.039 171.408 121.797 171.167 122.507C171.003 122.999 170.84 123.471 170.676 123.94C170.759 123.33 170.901 122.135 170.901 122.032C170.886 120.636 170.561 119.268 169.958 118.06C169.96 117.905 169.952 117.751 169.933 117.597C169.901 117.305 169.816 117.023 169.684 116.77C169.552 116.518 169.376 116.3 169.167 116.132C168.957 115.964 168.72 115.849 168.469 115.794C168.219 115.739 167.961 115.746 167.714 115.814C166.23 116.27 165.292 119.284 165.217 120.869C165.217 120.962 165.267 121.98 165.309 122.623C165.234 122.25 165.164 121.887 165.084 121.505C164.929 120.743 164.754 119.991 164.571 119.182C164.469 118.794 164.366 118.402 164.263 118.006C164.169 117.613 164.024 117.209 163.905 116.807C163.611 115.878 163.275 114.953 162.92 114.031C163.495 113.87 165.522 113.272 166.338 112.546C167.153 111.82 168.002 110.647 168.002 109.391C168.009 109.096 167.962 108.802 167.865 108.53C167.768 108.257 167.622 108.011 167.437 107.808C167.253 107.605 167.033 107.449 166.793 107.351C166.553 107.253 166.298 107.214 166.044 107.238C164.518 107.431 163.195 110.245 162.918 111.797C162.901 111.894 162.809 113.035 162.771 113.664C162.554 113.112 162.338 112.559 162.102 112.006C161.42 110.419 160.687 108.835 159.963 107.247C159.741 106.762 159.525 106.283 159.306 105.792C159.511 105.737 161.938 105.085 162.851 104.272C163.661 103.552 164.515 102.373 164.515 101.117C164.522 100.822 164.475 100.528 164.377 100.256C164.28 99.9833 164.134 99.7377 163.949 99.5349C163.764 99.3321 163.544 99.1767 163.304 99.0789C163.063 98.981 162.808 98.9428 162.554 98.9668C161.031 99.1564 159.708 101.971 159.431 103.523C159.409 103.642 159.281 105.284 159.267 105.702C158.787 104.632 158.316 103.559 157.88 102.489C157.298 101.036 156.797 99.5405 156.382 98.0125C156.479 97.9868 159.012 97.3184 159.947 96.4894C160.759 95.7664 161.611 94.5871 161.611 93.3339C161.619 93.0389 161.572 92.7453 161.475 92.4725C161.378 92.1996 161.232 91.9535 161.047 91.7503C160.863 91.5471 160.643 91.3914 160.402 91.2933C160.162 91.1952 159.907 91.157 159.653 91.181C158.127 91.3706 156.804 94.1855 156.527 95.7407C156.507 95.8628 156.368 97.6269 156.363 97.9482C156.341 97.8615 156.307 97.7715 156.285 97.6847C155.909 96.1343 155.651 94.5482 155.517 92.9451C155.431 92.0615 155.392 91.2132 155.37 90.3745C155.853 90.307 158.058 89.9664 158.976 89.327C159.894 88.6875 160.821 87.6497 160.931 86.3997C160.966 86.1074 160.947 85.8101 160.875 85.5269C160.804 85.2438 160.682 84.9811 160.518 84.756C160.353 84.5309 160.15 84.3484 159.921 84.2202C159.691 84.0921 159.441 84.0212 159.187 84.0122C157.653 84.0122 156.072 86.6375 155.65 88.1477C155.625 88.228 155.473 89.0924 155.373 89.7222C155.373 89.3495 155.356 88.9639 155.373 88.6072C155.373 87.2641 155.448 86.0366 155.52 84.9441C155.567 84.3271 155.617 83.768 155.672 83.2475C156.116 82.894 157.891 81.4416 158.446 80.4069C159.001 79.3722 159.414 77.9327 159.015 76.7663C158.929 76.4884 158.795 76.2345 158.619 76.0209C158.443 75.8074 158.231 75.6391 157.995 75.527C157.76 75.4148 157.507 75.3614 157.252 75.3701C156.998 75.3787 156.748 75.4494 156.518 75.5774C155.154 76.3935 154.796 79.5715 155.02 81.1363C155.043 81.2713 155.556 83.3439 155.575 83.3278L155.6 83.3053C155.539 83.8066 155.481 84.3464 155.428 84.9344C155.334 86.0237 155.237 87.2544 155.209 88.604C155.165 90.0561 155.196 91.51 155.301 92.958C155.407 94.5856 155.64 96.1987 155.997 97.7779C155.997 97.794 155.997 97.8133 155.997 97.8325C155.755 97.3923 155.045 96.1905 154.982 96.107C154.086 94.9052 151.747 93.199 150.335 93.893C150.104 94.0161 149.897 94.1943 149.729 94.4159C149.56 94.6376 149.434 94.8977 149.358 95.1796C149.282 95.4614 149.259 95.7586 149.288 96.0518C149.318 96.345 149.401 96.6276 149.531 96.8814C150.025 97.9836 151.273 98.5266 152.285 98.6969Z" fill="#0B71BB"/>
<path id="Vector_17" d="M178.584 90.3432C178.606 90.3625 179.072 88.2706 179.089 88.1357C179.278 86.5644 178.845 83.3993 177.464 82.6281C177.231 82.5071 176.98 82.4442 176.725 82.4434C176.47 82.4425 176.218 82.5038 175.985 82.6232C175.753 82.7427 175.544 82.9175 175.373 83.1365C175.203 83.3555 175.074 83.6136 174.995 83.8941C174.626 85.0734 175.095 86.5194 175.649 87.5123C176.301 88.6884 178.581 90.3432 178.584 90.3432Z" fill="#0B71BB"/>
<g id="Group_5" opacity="0.3">
<path id="Vector_18" d="M28.6874 66.7589C30.4904 67.4272 34.7039 66.8071 34.7066 66.8071C34.751 66.8071 33.5111 63.7159 33.414 63.5295C32.2878 61.3959 29.0258 58.0412 26.6763 58.7096C24.9815 59.182 24.2048 61.2802 24.7596 63.115C25.3143 64.9498 27.1506 66.1933 28.6874 66.7589Z" stroke="black" stroke-width="1.26722" stroke-linecap="round" stroke-linejoin="round"/>
<path id="Vector_19" d="M55.7743 99.3697C56.8006 98.0844 57.716 96.3139 57.544 94.5723C57.3582 92.6443 55.8797 91.1405 54.1682 91.5646C51.8021 92.1527 50.1212 96.8151 49.9048 99.3054C49.9048 99.4597 49.9048 101.266 49.9381 102.258C49.5192 101.433 49.1059 100.607 48.6566 99.7874C47.364 97.4192 45.9937 95.0735 44.6345 92.7182C44.2156 91.9984 43.8023 91.2754 43.3973 90.5557C43.586 90.4818 44.9784 89.913 46.3543 89.1836" stroke="black" stroke-width="1.26722" stroke-linecap="round" stroke-linejoin="round"/>
<path id="Vector_20" d="M52.8312 108.607C52.6314 108.067 52.3818 107.521 52.1627 106.972C51.5718 105.571 50.9172 104.183 50.2209 102.794C51.5767 102.253 52.8937 101.589 54.1598 100.809" stroke="black" stroke-width="1.26722" stroke-linecap="round" stroke-linejoin="round"/>
<path id="Vector_21" d="M70.6298 83.2709C70.0407 83.7752 69.5037 84.3563 69.0293 85.0029C68.9267 85.1475 67.7145 87.3357 67.4288 87.8949C67.4288 85.9926 67.451 84.0968 67.5342 82.2298C67.6372 79.7059 67.8799 77.1922 68.2609 74.7043C68.4107 74.7493 72.3746 75.9575 74.2053 75.588C75.7948 75.2667 77.742 74.3412 78.5215 72.5804C79.3009 70.8195 78.76 68.6505 77.1345 67.9147C74.8822 66.8961 71.2623 69.7109 69.8975 71.6485C69.7893 71.7995 68.4856 74.1549 68.2748 74.6015C68.2998 74.4569 68.3081 74.3059 68.3331 74.1613C68.7771 71.6796 69.4102 69.2483 70.2248 66.8961C70.6631 65.5883 71.143 64.3704 71.6312 63.1944C72.3496 63.5157 75.6477 64.8974 77.3259 64.7721C78.9375 64.6532 80.9597 63.9848 81.9 62.3364C82.8404 60.688 82.5075 58.458 80.9652 57.5165C78.8238 56.2312 74.957 58.5512 73.4176 60.3056C73.3316 60.3988 72.5854 61.4785 72.0306 62.2722C72.2581 61.7452 72.4855 61.1989 72.713 60.6977C73.5618 58.8211 74.4383 57.1631 75.2261 55.7042C75.6783 54.8784 76.1027 54.1394 76.5076 53.4549C77.3398 53.336 80.7433 52.8123 82.158 51.8194C83.5727 50.8265 85.0539 49.2102 85.2453 47.2372C85.4367 45.2643 84.2439 43.4713 82.5019 43.4648C80.0831 43.4648 77.5811 47.5907 76.9099 49.9717C76.8516 50.1774 76.2663 53.5063 76.3079 53.5063H76.3606C75.9612 54.149 75.5285 54.8591 75.093 55.6367C74.2747 57.0827 73.3649 58.7215 72.4772 60.582C71.5023 62.5771 70.6279 64.636 69.8587 66.7483C68.9878 69.1096 68.2999 71.556 67.8033 74.0585C67.8033 74.0874 67.8033 74.1195 67.8033 74.1484C67.7422 73.3323 67.5065 71.0508 67.4704 70.8773C66.9739 68.4449 64.777 64.078 62.3665 63.8563C60.6301 63.6957 59.3152 65.4148 59.3624 67.3524C59.4096 69.29 60.802 71.144 62.1085 72.2398C63.5842 73.4737 67.451 74.3734 67.7589 74.4473C67.3075 77.0066 67.0045 79.598 66.8518 82.2041C66.7575 83.724 66.702 85.2568 66.6604 86.7959C66.5883 86.089 66.519 85.4592 66.5023 85.3724C66.0058 82.9368 63.8089 78.5731 61.3984 78.3514C59.662 78.1908 58.3472 79.9099 58.3943 81.8475C58.4415 83.7851 59.834 85.6391 61.1404 86.7316C62.4469 87.8242 65.7506 88.6885 66.6216 88.9006C66.6216 89.4886 66.5966 90.0799 66.5883 90.6679C66.5495 93.4988 66.5217 96.3265 66.4219 99.0963C66.3886 100.06 66.322 101.024 66.261 101.988C66.1944 101.346 66.1362 100.835 66.1195 100.758C65.623 98.3219 63.4289 93.9583 61.0184 93.7334C59.2792 93.5759 57.9671 95.295 58.0115 97.2294C58.0559 99.1638 59.4512 101.024 60.7577 102.117C62.0641 103.209 65.0488 103.99 66.0835 104.244C65.9947 105.227 65.9059 106.211 65.7811 107.155C65.684 107.798 65.6285 108.441 65.5037 109.083C65.3789 109.726 65.2707 110.349 65.157 110.976C64.899 112.168 64.6383 113.402 64.3609 114.562C64.175 115.368 63.9809 116.133 63.8061 116.901C63.8505 115.937 63.9032 114.028 63.8921 113.868C63.6689 111.682 62.966 109.599 61.8506 107.817C61.8348 107.573 61.7995 107.331 61.7451 107.094C61.3124 105.224 59.6426 103.997 58.0143 104.713C55.7536 105.709 54.7023 110.613 54.816 113.113C54.816 113.257 55.049 114.848 55.2044 115.847C55.0352 115.278 54.8771 114.719 54.6968 114.134C54.3473 112.971 53.9672 111.824 53.5623 110.6" stroke="black" stroke-width="1.26722" stroke-linecap="round" stroke-linejoin="round"/>
<path id="Vector_22" d="M41.967 105.958C42.7847 106.307 43.6452 106.503 44.5162 106.539C46.0751 106.613 48.9849 105.357 49.9696 104.91C50.3635 105.787 50.7574 106.661 51.1042 107.532C51.3288 108.133 51.5813 108.692 51.7782 109.309C51.9751 109.926 52.1887 110.514 52.3912 111.108C52.7435 112.268 53.1152 113.464 53.4342 114.608C53.6617 115.401 53.8669 116.16 54.075 116.924C53.6506 116.086 52.7879 114.466 52.7019 114.338C51.3704 112.371 47.7977 109.473 45.5287 110.44C43.8921 111.137 43.329 113.332 44.0641 115.074C44.7992 116.815 46.7409 117.818 48.3247 118.178C50.0667 118.57 53.7587 117.577 54.2192 117.448C54.5576 118.714 54.8794 119.951 55.1651 121.124C55.3778 121.992 55.5775 122.827 55.7642 123.631L57.2621 123.451C57.0374 122.557 56.7989 121.625 56.5382 120.652C56.197 119.367 55.8114 117.994 55.4036 116.593C56.4827 115.936 57.5274 115.205 58.5326 114.405C59.9028 115.803 63.2176 117.23 63.6476 117.413C63.3286 118.698 63.0068 119.922 62.685 121.082C62.5186 121.699 62.3522 122.281 62.1885 122.856L63.7724 122.667C63.8667 122.303 63.961 121.947 64.0498 121.568C64.3771 120.282 64.7072 118.888 65.0345 117.458C65.4977 117.512 69.2785 117.937 70.9622 117.281C72.4906 116.683 74.2909 115.427 74.8457 113.554C75.4004 111.68 74.5683 109.624 72.8651 109.184C70.5073 108.57 67.2952 111.989 66.2078 114.145C66.1413 114.27 65.5754 115.752 65.2287 116.677C65.359 116.092 65.4922 115.523 65.6198 114.919C65.8833 113.727 66.1108 112.529 66.3632 111.24C66.4658 110.598 66.5712 109.977 66.6739 109.338C66.7765 108.698 66.8431 108.02 66.9318 107.355C67.1066 105.81 67.2092 104.235 67.3007 102.645C68.2022 102.905 71.4172 103.782 73.0149 103.461C74.6127 103.139 76.5488 102.214 77.3283 100.456C78.1077 98.6987 77.5668 96.5234 75.9413 95.7875C73.689 94.7689 70.0663 97.5837 68.7015 99.5213C68.6156 99.6434 67.7723 101.16 67.3146 102.005C67.3562 101.041 67.4034 100.093 67.42 99.1132C67.47 96.3145 67.4422 93.4804 67.42 90.6527C67.42 89.7851 67.42 88.9207 67.42 88.0564C67.7418 88.156 71.542 89.2935 73.3311 88.9304C74.9206 88.609 76.865 87.6868 77.6445 85.926C78.4239 84.1651 77.883 81.9961 76.2576 81.2603C75.1979 80.7815 73.836 81.151 72.5489 81.8772" stroke="black" stroke-width="1.26722" stroke-linecap="round" stroke-linejoin="round"/>
<path id="Vector_23" d="M39.4191 102.928C39.506 103.389 39.671 103.826 39.9045 104.213C40.1193 104.571 40.3814 104.889 40.6812 105.154" stroke="black" stroke-width="1.26722" stroke-linecap="round" stroke-linejoin="round"/>
<path id="Vector_24" d="M32.0743 80.7169C33.9966 80.4791 36.9231 79.1103 37.1838 78.9785C38.0252 81.4017 39.0057 83.7569 40.1185 86.0285C40.7621 87.3588 41.4445 88.673 42.1435 89.9808C41.7468 89.4377 41.3917 88.9558 41.3335 88.8947C39.7607 87.182 35.8496 84.9456 33.7331 86.2984C32.2075 87.2624 31.9384 89.5438 32.901 91.1376C33.8635 92.7314 35.9078 93.3869 37.5167 93.4576C39.1255 93.5282 42.2933 92.1433 43.1226 91.7609C43.4 92.259 43.6608 92.7603 43.9354 93.2583C45.253 95.6426 46.5761 98.0172 47.8188 100.392C48.2543 101.227 48.6509 102.069 49.0643 102.911C48.712 102.432 48.4124 102.031 48.3597 101.973C46.7869 100.26 42.8758 98.0236 40.7593 99.3764C40.2788 99.6825 39.8914 100.153 39.6498 100.723" stroke="black" stroke-width="1.26722" stroke-linecap="round" stroke-linejoin="round"/>
<path id="Vector_25" d="M43.1311 60.7789C43.1906 60.4817 43.2213 60.1778 43.2226 59.8727C43.2226 57.9448 41.8856 56.2514 40.152 56.4538C37.7442 56.7398 35.6333 61.1613 35.184 63.6066C35.159 63.7383 35.037 65.1232 34.9648 66.1322C34.9038 65.5474 34.8317 64.9465 34.7845 64.3842C34.5987 62.2763 34.5404 60.3354 34.5072 58.6003C34.4905 57.6202 34.4933 56.7366 34.5072 55.9075C35.1535 55.2649 37.7332 52.6589 38.4433 50.9302C39.1534 49.2014 39.6138 46.8718 38.8261 45.1173C38.0383 43.3629 36.1964 42.6142 34.7402 43.7228C32.718 45.2587 32.6015 50.31 33.1757 52.72C33.2256 52.9288 34.3241 56.0843 34.3574 56.0521L34.3962 56.0136C34.3712 56.8105 34.3546 57.6684 34.3518 58.6003C34.3518 60.3258 34.3796 62.2763 34.5266 64.3842C34.6621 66.671 34.9131 68.9467 35.2783 71.1995C35.6779 73.7252 36.2702 76.2049 37.048 78.6094C37.048 78.6383 37.0702 78.6672 37.0785 78.6929C36.6403 78.0502 35.356 76.299 35.245 76.1769C33.6722 74.4642 29.7611 72.2278 27.6446 73.5838C26.119 74.5478 25.8499 76.826 26.8125 78.4198C27.542 79.6376 28.8707 80.2899 30.1661 80.5727" stroke="black" stroke-width="1.26722" stroke-linecap="round" stroke-linejoin="round"/>
<path id="Vector_26" d="M47.4014 88.5812C47.8861 88.2898 48.3379 87.9304 48.7468 87.5112C49.9201 86.2258 51.1045 84.2143 50.9159 82.2478C50.7273 80.2813 49.2516 78.8192 47.5401 79.2434C45.174 79.8314 43.4931 84.4939 43.2795 86.981C43.2628 87.1705 43.2934 89.7669 43.3266 90.4288C42.4251 88.8382 41.5375 87.2445 40.7164 85.6346C39.5991 83.4624 38.6049 81.2084 37.7401 78.8867C37.8843 78.8289 41.7677 77.3026 43.1186 75.8245C44.2892 74.5391 45.4736 72.5276 45.285 70.5611C45.0964 68.5946 43.6207 67.1293 41.9092 67.5535C39.5431 68.1415 37.8649 72.804 37.6485 75.2943C37.6319 75.4903 37.6652 78.2858 37.7012 78.7903C37.6513 78.6586 37.5875 78.5236 37.5404 78.3886C36.7278 76.0345 36.0984 73.6009 35.6597 71.117C35.4017 69.7514 35.2214 68.4275 35.0688 67.1325C35.8178 66.9365 39.2296 65.9854 40.5694 64.8093C41.22 64.2468 41.7957 63.5767 42.2781 62.8203" stroke="black" stroke-width="1.26722" stroke-linecap="round" stroke-linejoin="round"/>
<path id="Vector_27" d="M71.4873 62.708C71.5289 62.7305 71.9644 59.3662 71.9727 59.1509C72.0476 56.651 70.9242 51.7604 68.644 50.8157C67.0075 50.1312 65.357 51.3908 64.9493 53.2674C64.5415 55.1439 65.4735 57.3675 66.486 58.8199C67.6787 60.5262 71.4845 62.708 71.4873 62.708Z" stroke="black" stroke-width="1.26722" stroke-linecap="round" stroke-linejoin="round"/>
</g>
<g id="Group_6" opacity="0.3">
<path id="Vector_28" d="M135.1 21.5121C136.607 22.2158 138.115 22.7042 138.118 22.7042C138.121 22.7042 138.054 19.3271 138.041 19.1021C137.716 16.6311 135.821 12.0715 133.45 11.6216C131.73 11.3003 130.307 12.8877 130.207 14.8349C130.107 16.7821 131.375 18.7487 132.601 19.9761" stroke="black" stroke-width="1.26722" stroke-linecap="round" stroke-linejoin="round"/>
<path id="Vector_29" d="M170.673 48.2208C170.962 48.3728 171.262 48.4943 171.569 48.5839C173.142 48.9984 175.245 49.0273 176.562 47.7549C177.88 46.4824 178.099 44.2395 176.84 42.8321C175.106 40.8785 170.823 41.8424 168.915 43.0153C168.765 43.1053 166.776 44.6894 166.432 45.0043C166.501 44.8822 166.562 44.7472 166.632 44.6251C167.875 42.5388 169.274 40.5839 170.815 38.7834C171.647 37.7744 172.504 36.8554 173.35 36.0039C173.905 36.6176 176.479 39.3779 178.066 40.0205C179.588 40.6375 181.672 40.9299 183.097 39.8341C183.62 39.4442 184.023 38.8739 184.251 38.2039C184.478 37.5339 184.518 36.7981 184.365 36.1003" stroke="black" stroke-width="1.26722" stroke-linecap="round" stroke-linejoin="round"/>
<path id="Vector_30" d="M148.086 8.21511C148.771 7.13224 149.265 5.85014 149.176 4.56483C149.04 2.63686 147.592 1.07842 145.878 1.44152C143.498 1.94922 141.698 6.55063 141.418 9.03129C141.395 9.24336 141.348 12.6462 141.39 12.6334L141.44 12.6141C141.162 13.3403 140.846 14.1179 140.533 14.9791C139.958 16.5857 139.326 18.3787 138.749 20.3999C138.107 22.5683 137.575 24.7785 137.157 27.0192C136.677 29.5254 136.391 32.0761 136.303 34.6411C136.301 34.6722 136.301 34.7033 136.303 34.7343C136.114 33.9406 135.518 31.7524 135.47 31.5885C134.594 29.3039 131.742 25.4833 129.337 25.7789C127.604 25.991 126.594 27.9607 126.938 29.8565C127.282 31.7524 128.957 33.2755 130.416 34.0724C132.061 34.9689 136.006 35.0363 136.319 35.0363C136.281 37.6479 136.391 40.2596 136.649 42.8543C136.796 44.3677 136.985 45.8844 137.204 47.4043C137.021 46.7263 136.852 46.1189 136.821 46.0418C135.945 43.754 133.09 39.9366 130.685 40.229C128.955 40.4443 127.945 42.414 128.289 44.3067C128.633 46.1993 130.308 47.7288 131.767 48.5225C133.226 49.3162 136.608 49.4608 137.498 49.4865C137.584 50.0681 137.662 50.6497 137.748 51.2313C138.161 54.0236 138.58 56.8063 138.927 59.5505C139.049 60.5144 139.137 61.4784 139.229 62.4424C139.065 61.8383 138.924 61.3338 138.893 61.2599C138.02 58.9721 135.165 55.1547 132.76 55.4471C131.029 55.6624 130.02 57.6321 130.364 59.5248C130.708 61.4174 132.383 62.9469 133.842 63.7406C135.254 64.5118 138.355 64.666 139.412 64.7046C139.481 65.691 139.551 66.6743 139.578 67.6319C139.578 68.2745 139.631 68.9172 139.606 69.5598C139.581 70.2025 139.578 70.8451 139.567 71.4878C139.504 72.7153 139.443 73.9845 139.357 75.1798C139.298 76.0153 139.232 76.8058 139.168 77.6059C139.057 76.6419 138.805 74.7589 138.769 74.6047C138.214 72.1915 135.881 67.9114 133.465 67.7829C131.717 67.6865 130.464 69.4538 130.547 71.3817C130.63 73.3097 132.095 75.1156 133.432 76.1567C134.907 77.307 138.641 78.0493 139.11 78.1393C138.996 79.4599 138.877 80.742 138.749 81.9534C138.655 82.8467 138.558 83.7079 138.458 84.524L139.9 85.0318C139.995 84.1106 140.087 83.1466 140.178 82.1398C140.297 80.7999 140.4 79.3635 140.494 77.8886C141.705 77.767 142.909 77.5642 144.1 77.2813C144.896 79.1836 147.473 81.992 147.806 82.3519C147.085 83.3833 146.374 84.3762 145.689 85.3017C145.329 85.7933 144.982 86.2656 144.638 86.7123L146.161 87.2489L146.791 86.3653C147.528 85.3242 148.297 84.1899 149.079 83.0202C149.484 83.2805 152.826 85.3724 154.599 85.5234C156.208 85.6616 158.291 85.3177 159.417 83.8332C160.543 82.3487 160.477 80.0865 159.057 78.9169C157.09 77.2878 152.985 78.994 151.251 80.485C151.148 80.5749 150.141 81.6739 149.501 82.3808C149.817 81.8988 150.13 81.4361 150.449 80.938C151.09 79.958 151.706 78.9554 152.369 77.879L153.292 76.2724C153.611 75.739 153.889 75.1316 154.194 74.5597C154.874 73.2133 155.503 71.8123 156.113 70.3824C156.857 71.0251 159.525 73.2744 161.106 73.705C162.688 74.1355 164.782 74.1484 166.099 72.8759C167.417 71.6035 167.636 69.3606 166.377 67.9532C164.643 65.9995 160.363 66.9635 158.455 68.1363C158.335 68.2102 157.048 69.2288 156.349 69.804C156.71 68.9429 157.073 68.0849 157.414 67.1981C158.399 64.6274 159.326 62.0183 160.258 59.4059C160.535 58.6057 160.837 57.7992 161.129 57.0152C161.406 57.2497 164.513 60.01 166.282 60.4791C167.852 60.8968 169.958 60.9225 171.275 59.6501C172.593 58.3776 172.812 56.138 171.553 54.7305C169.819 52.7769 165.539 53.7408 163.631 54.9105C163.486 55.0005 161.636 56.4689 161.181 56.8706C161.822 55.1161 162.474 53.3777 163.178 51.694C164.118 49.4141 165.185 47.2073 166.371 45.0875C167.343 45.9456 168.356 46.7384 169.406 47.4621" stroke="black" stroke-width="1.26722" stroke-linecap="round" stroke-linejoin="round"/>
<path id="Vector_31" d="M145.735 22.8588C146.831 22.2644 147.846 21.3646 148.298 20.1211C148.947 18.3377 148.279 16.1816 146.614 15.5904C144.301 14.7678 140.872 17.8911 139.638 19.9444C139.569 20.0568 138.994 21.2779 138.587 22.1744C138.728 21.6088 138.864 21.0208 139.008 20.481C139.544 18.4566 140.143 16.6411 140.673 15.0377C140.986 14.1283 141.286 13.3122 141.574 12.5538C142.384 12.255 145.632 11.0114 146.867 9.73898C146.989 9.61367 147.108 9.48192 147.227 9.34375" stroke="black" stroke-width="1.26722" stroke-linecap="round" stroke-linejoin="round"/>
<path id="Vector_32" d="M183.604 34.6807C181.893 32.8555 177.865 33.2733 175.954 34.1505C175.846 34.2019 174.784 34.8542 174.012 35.3394C174.398 34.957 174.792 34.5553 175.169 34.1987C176.581 32.8523 177.943 31.718 179.158 30.7251C179.854 30.1692 180.492 29.6808 181.1 29.2309C181.915 29.5009 185.219 30.5388 186.855 30.2656C188.492 29.9925 190.42 29.1442 191.246 27.4122C192.073 25.6803 191.585 23.492 189.982 22.7016C187.762 21.6026 184.065 24.3082 182.65 26.1815C182.528 26.3454 180.867 29.1538 180.911 29.1667H180.961C180.373 29.5876 179.749 30.0439 179.077 30.5612C177.84 31.5252 176.451 32.6242 175.008 33.9416C173.441 35.3393 171.945 36.8413 170.528 38.4402C168.935 40.2249 167.481 42.1702 166.185 44.253L166.143 44.3301C166.362 43.5493 166.909 41.3418 166.933 41.1683C167.291 38.7005 166.731 33.691 164.584 32.3992C163.039 31.4706 161.255 32.4699 160.642 34.2694C160.029 36.0688 160.698 38.4113 161.536 40.0083C162.481 41.8077 165.744 44.3783 166.001 44.584C164.728 46.742 163.581 48.9963 162.567 51.3319C161.968 52.6911 161.402 54.076 160.85 55.477C161.022 54.7926 161.169 54.1917 161.18 54.0953C161.538 51.6275 160.981 46.618 158.834 45.3263C157.286 44.3976 155.505 45.397 154.892 47.1964C154.279 48.9958 154.948 51.3383 155.785 52.9353C156.623 54.5323 159.391 56.8105 160.11 57.3985C159.902 57.9384 159.691 58.4718 159.486 59.0052C158.501 61.5983 157.527 64.1882 156.507 66.6978C156.149 67.5814 155.766 68.4362 155.397 69.2941C155.547 68.6868 155.674 68.1759 155.674 68.0956C156.032 65.6278 155.472 60.6183 153.325 59.3297C151.777 58.4011 149.996 59.3972 149.383 61.1966C148.77 62.9961 149.439 65.3386 150.276 66.9356C151.086 68.4812 153.605 70.5923 154.471 71.2928C154.057 72.1571 153.638 73.0247 153.214 73.8409C152.909 74.3904 152.645 74.9431 152.312 75.4765L151.347 77.0831C150.709 78.0664 150.057 79.0882 149.405 80.0297C148.962 80.6723 148.526 81.315 148.093 81.9319C148.46 81.0547 149.147 79.326 149.189 79.1717C149.718 77.0576 149.77 74.8215 149.339 72.6777C149.406 72.4454 149.455 72.2067 149.486 71.9643C149.713 70.0364 148.587 68.163 146.845 68.0923C144.429 67.9927 141.816 72.0415 141.081 74.3936C141.037 74.5318 140.712 76.0966 140.526 77.0895C140.56 76.4886 140.601 75.9038 140.632 75.2805C140.698 74.053 140.732 72.8255 140.776 71.5049C140.776 70.8622 140.776 70.2195 140.776 69.5769C140.776 68.9342 140.732 68.2466 140.712 67.575C140.637 66.0198 140.496 64.4453 140.324 62.8643C141.253 62.9318 144.554 63.1053 146.071 62.4466C147.589 61.7879 149.364 60.4576 149.849 58.5618C150.335 56.6659 149.458 54.648 147.747 54.272C145.369 53.7515 142.257 57.2925 141.225 59.4872C141.159 59.6254 140.571 61.2963 140.263 62.2249C140.155 61.2609 140.049 60.3258 139.911 59.3683C139.514 56.6081 139.037 53.8286 138.571 51.0523C138.429 50.2008 138.293 49.3525 138.157 48.5042C138.49 48.5299 142.407 48.8255 144.107 48.0993C145.616 47.4567 147.383 46.1199 147.869 44.2241C148.354 42.3283 147.478 40.3103 145.766 39.9344C143.389 39.4138 140.277 42.9549 139.245 45.1495C139.167 45.3166 138.321 47.7202 138.135 48.3628C137.836 46.4895 137.553 44.6226 137.336 42.7685C137.035 40.2661 136.874 37.7438 136.854 35.2173C137.009 35.2173 141.098 35.5707 142.837 34.8156C144.349 34.173 146.113 32.8362 146.598 30.9404C147.084 29.0446 146.207 27.0266 144.496 26.6507C142.119 26.1301 139.009 29.668 137.974 31.8658C137.894 32.0394 136.987 34.6293 136.865 35.1145C136.865 34.9667 136.851 34.8156 136.851 34.6678C136.894 32.1338 137.129 29.609 137.556 27.123C137.777 25.7478 138.055 24.4464 138.349 23.1868C139.103 23.341 142.565 23.9997 144.196 23.5081C144.399 23.447 144.607 23.3796 144.815 23.296" stroke="black" stroke-width="1.26722" stroke-linecap="round" stroke-linejoin="round"/>
<path id="Vector_33" d="M173.384 35.4743C173.415 35.5129 174.946 32.6081 175.024 32.4121C175.931 30.1435 176.536 25.1372 174.746 23.2381C173.468 21.8693 171.523 22.2742 170.519 23.8358C169.515 25.3975 169.629 27.846 170.073 29.6422C170.605 31.7533 173.384 35.4711 173.384 35.4743Z" stroke="black" stroke-width="1.26722" stroke-linecap="round" stroke-linejoin="round"/>
</g>
</g>
<g id="freepik--Device--inject-26">
<path id="Vector_34" d="M87.5207 54.1895H175.824L164.396 127.581H76.0924L87.5207 54.1895Z" fill="white" stroke="#263238" stroke-width="1.26722" stroke-linecap="round" stroke-linejoin="round"/>
<path id="Vector_35" d="M174.06 54.1895L168.565 89.4841L163.492 122.07L162.632 127.584H74.3314L82.8638 72.7879L85.7597 54.1895H174.06Z" fill="#263238" stroke="#263238" stroke-width="1.26722" stroke-linecap="round" stroke-linejoin="round"/>
<path id="Vector_36" d="M88.168 56.4902H170.932L160.219 125.28H77.4553L88.168 56.4902Z" fill="#0B71BB" stroke="#263238" stroke-width="1.26722" stroke-linecap="round" stroke-linejoin="round"/>
<path id="Vector_37" d="M78.2921 119.904L77.4543 125.283H160.218L161.056 119.904H78.2921Z" fill="#BFBFBF" stroke="#263238" stroke-width="1.26722" stroke-linecap="round" stroke-linejoin="round"/>
<path id="Vector_38" d="M168.478 56.4902L157.765 125.28H160.217L170.93 56.4902H168.478Z" fill="#BFBFBF" stroke="#263238" stroke-width="1.26722" stroke-linecap="round" stroke-linejoin="round"/>
<path id="Vector_39" d="M167.041 81.4927L169.124 68.1094H166.674L164.589 81.4927H167.041Z" fill="#A1A1A1" stroke="#263238" stroke-width="1.26722" stroke-linecap="round" stroke-linejoin="round"/>
<path id="Vector_40" d="M163.05 122.725H54.6583V127.583H163.05V122.725Z" fill="white" stroke="#263238" stroke-width="1.26722" stroke-linecap="round" stroke-linejoin="round"/>
<path id="Vector_41" d="M70.1095 122.723H16.9069V127.581H70.1095V122.723Z" fill="#263238" stroke="#263238" stroke-width="1.26722" stroke-linecap="round" stroke-linejoin="round"/>
<path id="Vector_42" d="M87.4082 61.3507H170.172L170.929 56.4922H88.1655L87.4082 61.3507Z" fill="#BFBFBF" stroke="#263238" stroke-width="1.26722" stroke-linecap="round" stroke-linejoin="round"/>
<path id="Vector_43" d="M92.6182 59.8374H132.04L132.401 57.5215H92.9788L92.6182 59.8374Z" fill="white" stroke="#263238" stroke-width="1.26722" stroke-linecap="round" stroke-linejoin="round"/>
</g>
<g id="freepik--Ads--inject-26">
<path id="Vector_44" opacity="0.2" d="M90.6834 83.3145H121.254L117.299 108.725H86.7279L90.6834 83.3145Z" fill="black"/>
<path id="Vector_45" d="M88.795 80.9668H119.369L115.413 106.374H84.8395L88.795 80.9668Z" fill="white" stroke="#263238" stroke-width="1.26722" stroke-linecap="round" stroke-linejoin="round"/>
<path id="Vector_46" d="M118.908 83.9262L119.371 80.9668H88.7975L88.337 83.9262H118.908Z" fill="#263238" stroke="#263238" stroke-width="1.26722" stroke-linecap="round" stroke-linejoin="round"/>
<path id="Vector_47" d="M117.673 82.51C117.674 82.6836 117.63 82.8535 117.547 82.9981C117.464 83.1428 117.346 83.2556 117.207 83.3223C117.069 83.3891 116.916 83.4067 116.769 83.373C116.622 83.3393 116.487 83.2557 116.381 83.133C116.275 83.0102 116.202 82.8537 116.173 82.6834C116.144 82.5131 116.159 82.3366 116.217 82.1763C116.275 82.016 116.372 81.8792 116.497 81.7831C116.622 81.687 116.769 81.6361 116.919 81.6367C117.119 81.6367 117.311 81.7287 117.452 81.8925C117.594 82.0563 117.673 82.2784 117.673 82.51Z" fill="white" stroke="#263238" stroke-width="1.26722" stroke-linecap="round" stroke-linejoin="round"/>
<path id="Vector_48" d="M100.652 86.7458C102.138 86.9964 102.607 88.3749 102.272 90.335L102.205 90.7303H100.89L100.976 90.229C101.195 88.9437 100.882 88.1436 99.8666 88.1436C98.8514 88.1436 98.2911 88.9373 98.0719 90.229C97.5171 93.5033 101.742 93.5258 101.043 97.6195C100.71 99.5796 99.7501 100.977 98.1773 101.228L97.9887 102.333H96.8376L97.0262 101.228C95.5033 100.977 95.0345 99.5989 95.3619 97.6195L95.5144 96.723H96.8292L96.66 97.7224C96.4353 99.0366 96.7765 99.7885 97.7862 99.7885C98.7959 99.7885 99.3895 99.0366 99.6114 97.7224C100.166 94.4705 95.961 94.4288 96.66 90.3318C96.9984 88.33 97.9249 87.0157 99.4838 86.7426L99.6835 85.5762H100.835L100.652 86.7458Z" fill="#263238"/>
<path id="Vector_49" d="M103.509 99.2617L103.165 101.286H101.814L102.158 99.2617H103.509ZM103.113 93.5518L104.28 86.6914H105.684L104.516 93.5518L103.57 98.0503H102.538L103.113 93.5518Z" fill="#263238"/>
<path id="Vector_50" d="M106.356 99.2617L106.012 101.286H104.661L105.005 99.2617H106.356ZM105.962 93.5518L107.127 86.6914H108.533L107.365 93.5518L106.425 98.0503H105.379L105.962 93.5518Z" fill="#263238"/>
<path id="Vector_51" opacity="0.2" d="M168.561 89.4824L163.488 122.068H131.824L136.9 89.4824H168.561Z" fill="black"/>
<path id="Vector_52" d="M134.575 87.3008H173.781L168.707 119.887H129.502L134.575 87.3008Z" fill="white" stroke="#263238" stroke-width="1.26722" stroke-linecap="round" stroke-linejoin="round"/>
<path id="Vector_53" d="M173.188 91.0989L173.779 87.3008H134.573L133.982 91.0989H173.188Z" fill="#263238" stroke="#263238" stroke-width="1.26722" stroke-linecap="round" stroke-linejoin="round"/>
<path id="Vector_54" d="M171.606 89.2863C171.606 89.5088 171.549 89.7263 171.442 89.9112C171.336 90.0962 171.184 90.2403 171.006 90.3253C170.829 90.4103 170.633 90.4323 170.445 90.3887C170.257 90.3451 170.084 90.2377 169.948 90.0801C169.812 89.9226 169.72 89.722 169.683 89.5037C169.646 89.2854 169.665 89.0592 169.739 88.8539C169.813 88.6485 169.938 88.4732 170.098 88.35C170.258 88.2269 170.446 88.1615 170.638 88.1621C170.766 88.1621 170.892 88.1912 171.009 88.2477C171.127 88.3043 171.234 88.3871 171.324 88.4916C171.414 88.596 171.485 88.72 171.533 88.8564C171.582 88.9927 171.607 89.1388 171.606 89.2863Z" fill="white" stroke="#263238" stroke-width="1.26722" stroke-linecap="round" stroke-linejoin="round"/>
<path id="Vector_55" d="M138.61 103.336C138.918 102.845 139.324 102.446 139.792 102.173C140.261 101.9 140.779 101.761 141.304 101.768C143.403 101.768 144.033 103.551 143.573 106.267L142.943 109.972C142.452 112.864 140.94 114.753 138.444 114.753C135.947 114.753 135.115 112.864 135.595 109.972L135.811 108.686H137.515L137.276 110.094C136.999 111.797 137.417 112.822 138.724 112.822C140.03 112.822 140.813 111.797 141.101 110.094L141.725 106.405C142.017 104.702 141.584 103.674 140.277 103.674C139.276 103.674 138.488 104.316 138.089 105.701L138.017 106.135H136.313L138.546 95.6211H144.976L144.654 97.5137H139.856L138.61 103.336Z" fill="#263238"/>
<path id="Vector_56" d="M146.211 100.201C146.702 97.309 148.258 95.4453 150.752 95.4453C153.246 95.4453 154.192 97.3122 153.701 100.201L152.036 109.96C151.546 112.852 149.987 114.741 147.468 114.741C144.949 114.741 144.056 112.852 144.55 109.96L146.211 100.201ZM146.325 110.095C146.048 111.798 146.492 112.823 147.798 112.823C149.105 112.823 149.909 111.798 150.197 110.095L151.909 100.095C152.203 98.363 151.77 97.3379 150.439 97.3379C149.107 97.3379 148.328 98.363 148.034 100.095L146.325 110.095Z" fill="#263238"/>
<path id="Vector_57" d="M157.319 97.2716L156.903 99.7941C156.773 100.572 156.368 101.079 155.7 101.079C155.031 101.079 154.801 100.565 154.934 99.7941L155.364 97.2716C155.494 96.5069 155.896 95.9863 156.568 95.9863C157.239 95.9863 157.458 96.5069 157.319 97.2716ZM159.816 96.0281L155.736 104.02H155.272L159.344 96.0281H159.816ZM155.855 97.2363L155.414 99.839C155.339 100.273 155.414 100.559 155.783 100.559C156.152 100.559 156.338 100.273 156.399 99.839L156.842 97.2363C156.915 96.8025 156.817 96.5069 156.473 96.5069C156.13 96.5069 155.921 96.8025 155.847 97.2363H155.855ZM160.21 100.25L159.783 102.763C159.652 103.538 159.258 104.048 158.579 104.048C157.899 104.048 157.68 103.534 157.813 102.763L158.24 100.25C158.371 99.4856 158.773 98.965 159.441 98.965C160.11 98.965 160.332 99.4856 160.202 100.25H160.21ZM158.737 100.218L158.29 102.808C158.215 103.242 158.313 103.538 158.656 103.538C159 103.538 159.211 103.242 159.275 102.808L159.716 100.218C159.788 99.7844 159.691 99.4984 159.344 99.4984C158.998 99.4984 158.804 99.7844 158.729 100.218H158.737Z" fill="#263238"/>
<path id="Vector_58" d="M153.228 106.992C153.506 105.434 154.338 104.422 155.678 104.422C157.017 104.422 157.53 105.424 157.264 106.992L156.368 112.265C156.091 113.811 155.259 114.836 153.908 114.836C152.557 114.836 152.069 113.818 152.332 112.265L153.228 106.992ZM153.289 112.327C153.131 113.258 153.378 113.795 154.083 113.795C154.787 113.795 155.217 113.258 155.378 112.327L156.293 106.935C156.451 106.019 156.218 105.463 155.5 105.463C154.782 105.463 154.363 106.019 154.207 106.935L153.289 112.327Z" fill="#263238"/>
<path id="Vector_59" d="M160.814 109.275L160.639 110.309H158.614L157.863 114.724H156.881L158.617 104.525H162.112L161.937 105.56H159.421L158.789 109.275H160.814Z" fill="#263238"/>
<path id="Vector_60" d="M165.09 109.277L164.915 110.311H162.89L162.138 114.726H161.159L162.893 104.527H166.388L166.213 105.562H163.697L163.067 109.277H165.09Z" fill="#263238"/>
<path id="Vector_61" opacity="0.2" d="M107.467 54.1914L104.571 72.7899H82.8602L85.7561 54.1914H107.467Z" fill="black"/>
<path id="Vector_62" d="M66.4811 35.2305H108.228L102.827 69.9307H61.0776L66.4811 35.2305Z" fill="white" stroke="#263238" stroke-width="1.26722" stroke-linecap="round" stroke-linejoin="round"/>
<path id="Vector_63" d="M90.4057 35.2305L87.9897 38.6237L87.8177 35.2305H86.955L85.5348 38.1867L84.8524 35.2305H83.9038L83.0106 38.3216L81.6569 35.2305H80.9552L80.5197 39.0254L77.8734 35.253L78.1508 40.2625L74.8748 37.2227L76.001 41.9912L72.2175 39.803L74.1509 44.1473L70.0067 42.8909L72.6724 46.644L68.3258 46.3677L71.6183 49.385L67.2384 50.1015L71.033 52.2673L66.7863 53.9478L70.9415 55.1785L66.9887 57.7588L71.3409 58.0062L67.8376 61.3866L72.2175 60.6443L69.2994 64.6962L73.5406 62.99L71.3187 67.5561L75.2604 64.9533L73.818 69.86L77.3047 66.4571L76.8887 69.9307H77.829L79.5987 67.4468L79.7263 69.9307H81.0689L82.0564 67.8806L82.5279 69.9307H83.9481L84.5778 67.7456L85.5376 69.9307H86.7386L87.0715 67.0451L89.0964 69.9307H89.6678L89.4376 65.8048L92.7163 68.8446L91.5874 64.0761L95.3737 66.2675L93.4375 61.92L97.5845 63.1796L94.9188 59.4265L99.2654 59.7028L95.9701 56.6823L100.353 55.969L96.5554 53.8032L100.802 52.1227L96.6497 50.892L100.6 48.3117L96.2502 48.0611L99.7508 44.6807L95.3709 45.423L98.289 41.371L94.0478 43.0805L96.2696 38.5112L92.3308 41.1172L93.7732 36.2073L90.2864 39.6102L90.8107 35.2305H90.4057Z" fill="white" stroke="#263238" stroke-width="1.26722" stroke-linecap="round" stroke-linejoin="round"/>
<path id="Vector_64" d="M107.597 39.276L108.226 35.2305H66.4798L65.8501 39.276H107.597Z" fill="#263238" stroke="#263238" stroke-width="1.26722" stroke-linecap="round" stroke-linejoin="round"/>
<path id="Vector_65" d="M105.917 37.3453C105.918 37.5825 105.857 37.8146 105.744 38.0121C105.63 38.2096 105.469 38.3637 105.28 38.4548C105.09 38.5458 104.882 38.5698 104.681 38.5237C104.48 38.4776 104.296 38.3634 104.151 38.1957C104.006 38.0279 103.907 37.8141 103.867 37.5814C103.828 37.3487 103.848 37.1076 103.927 36.8885C104.006 36.6695 104.139 36.4824 104.309 36.351C104.48 36.2196 104.68 36.1498 104.885 36.1504C105.159 36.1504 105.421 36.2763 105.615 36.5004C105.808 36.7245 105.917 37.0284 105.917 37.3453Z" fill="white" stroke="#263238" stroke-width="1.26722" stroke-linecap="round" stroke-linejoin="round"/>
<path id="Vector_66" d="M77.9632 47.748C79.4223 47.748 79.8605 48.5546 79.5887 50.1516L79.5027 50.6625C79.3057 51.8096 78.9035 52.523 78.0381 52.8186C78.898 53.1142 79.1033 53.9497 78.9008 55.145L78.7427 56.0576C78.4653 57.6867 77.6331 58.6025 76.1713 58.6025H74.016L75.8606 47.748H77.9632ZM76.3571 57.5003C77.1199 57.5003 77.5471 57.0344 77.7191 56.0287L77.8828 55.0647C78.088 53.8565 77.7413 53.458 76.8453 53.458H75.9355L75.2476 57.5036L76.3571 57.5003ZM76.9258 52.3591C77.7579 52.3591 78.235 52.0378 78.4292 50.9163L78.5374 50.2737C78.7011 49.3097 78.4986 48.847 77.7496 48.847H76.7177L76.1214 52.3495L76.9258 52.3591Z" fill="#263238"/>
<path id="Vector_67" d="M80.6878 56.0415C80.5214 57.0055 80.7572 57.6096 81.52 57.6096C82.2828 57.6096 82.7044 57.0184 82.8709 56.0415L84.28 47.748H85.2592L83.8556 55.9805C83.5782 57.6257 82.746 58.7246 81.2898 58.7246C79.8335 58.7246 79.3897 57.6257 79.667 55.9805L81.0679 47.748H82.0997L80.6878 56.0415Z" fill="#263238"/>
<path id="Vector_68" d="M86.7648 54.7112L85.9688 47.748H87.0533L87.6081 53.0821L89.9881 47.748H90.9783L87.7995 54.7112L87.1365 58.6025H86.1074L86.7648 54.7112Z" fill="#263238"/>
<path id="Vector_69" d="M91.148 57.1006L90.8928 58.6045H89.8887L90.1439 57.1006H91.148ZM90.854 52.8527L91.7194 47.75H92.7624L91.8942 52.8527L91.1924 56.2009H90.4157L90.854 52.8527Z" fill="#263238"/>
<path id="Vector_70" opacity="0.2" d="M159.802 54.1934L156.884 72.93H126.31L129.229 54.1934H159.802Z" fill="black"/>
<path id="Vector_71" d="M128.533 45.1699H159.106L155.148 70.5773H124.577L128.533 45.1699Z" fill="white" stroke="#263238" stroke-width="1.26722" stroke-linecap="round" stroke-linejoin="round"/>
<path id="Vector_72" d="M158.644 48.1274L159.107 45.168H128.534L128.073 48.1274H158.644Z" fill="#263238" stroke="#263238" stroke-width="1.26722" stroke-linecap="round" stroke-linejoin="round"/>
<path id="Vector_73" d="M156.659 47.5909C157.077 47.5909 157.416 47.1984 157.416 46.7144C157.416 46.2303 157.077 45.8379 156.659 45.8379C156.24 45.8379 155.901 46.2303 155.901 46.7144C155.901 47.1984 156.24 47.5909 156.659 47.5909Z" fill="white" stroke="#263238" stroke-width="1.26722" stroke-linecap="round" stroke-linejoin="round"/>
<path id="Vector_74" d="M137.328 54.6104L136.74 58.0582H136.002L137.306 50.3945H138.043L137.458 53.8424H139.084L139.669 50.3945H140.407L139.103 58.0582H138.365L138.953 54.6104H137.328Z" fill="#263238"/>
<path id="Vector_75" d="M140.793 52.2463C140.99 51.0735 141.626 50.3184 142.632 50.3184C143.639 50.3184 144.019 51.0735 143.825 52.2463L143.151 56.2083C142.954 57.3683 142.319 58.1363 141.304 58.1363C140.289 58.1363 139.917 57.3683 140.117 56.2083L140.793 52.2463ZM140.838 56.2533C140.718 56.9538 140.904 57.3587 141.434 57.3587C141.964 57.3587 142.288 56.9538 142.408 56.2533L143.096 52.2013C143.215 51.5105 143.04 51.096 142.499 51.096C141.958 51.096 141.645 51.5105 141.528 52.2013L140.838 56.2533Z" fill="#263238"/>
<path id="Vector_76" d="M144.488 58.0582L145.659 51.1721H144.441L144.574 50.3945H147.75L147.617 51.1721H146.399L145.226 58.0582H144.488Z" fill="#263238"/>
<path id="Vector_77" d="M135.337 60.7483L135.303 60.9571H134.604L134.646 60.7033C134.763 60.0157 134.604 59.6108 134.077 59.6108C133.55 59.6108 133.245 60.0157 133.134 60.6937C132.843 62.4128 135.037 62.5766 134.668 64.7327C134.471 65.8927 133.861 66.6607 132.851 66.6607C131.842 66.6607 131.495 65.9024 131.692 64.7327L131.767 64.2957H132.457L132.374 64.7777C132.258 65.4686 132.435 65.8735 132.962 65.8735C133.489 65.8735 133.808 65.4686 133.925 64.7777C134.216 63.0683 132.03 62.9044 132.399 60.7483C132.599 59.5658 133.198 58.8203 134.188 58.8203C135.179 58.8203 135.548 59.5883 135.337 60.7483Z" fill="#263238"/>
<path id="Vector_78" d="M136.005 65.0294L135.486 66.5621H134.807L137.378 58.8984H138.446L138.407 66.5621H137.672V65.0165L136.005 65.0294ZM136.224 64.2967H137.7V59.8721L136.224 64.2967Z" fill="#263238"/>
<path id="Vector_79" d="M138.986 66.5602L140.29 58.8965H141.028L139.857 65.7825H141.746L141.613 66.5602H138.986Z" fill="#263238"/>
<path id="Vector_80" d="M145.252 62.3026L145.121 63.0673H143.504L143.032 65.7954H145.016L144.891 66.5602H142.167L143.471 58.8965H146.195L146.061 59.6709H144.078L143.632 62.2897L145.252 62.3026Z" fill="#263238"/>
<path id="Vector_81" d="M146.473 65.5102L146.293 66.5738H145.583L145.763 65.5102H146.473ZM146.265 62.5122L146.878 58.9102H147.616L147.003 62.5122L146.506 64.8772H145.952L146.265 62.5122Z" fill="#263238"/>
<path id="Vector_82" d="M147.965 65.5102L147.785 66.5738H147.078L147.258 65.5102H147.965ZM147.752 62.5122L148.365 58.9102H149.103L148.49 62.5122L147.993 64.8772H147.438L147.752 62.5122Z" fill="#263238"/>
</g>
</g>
</svg>
